G04 #@! TF.GenerationSoftware,KiCad,Pcbnew,9.0.4*
G04 #@! TF.CreationDate,2026-05-30T13:30:11-04:00*
G04 #@! TF.ProjectId,canarynode,63616e61-7279-46e6-9f64-652e6b696361,rev?*
G04 #@! TF.SameCoordinates,Original*
G04 #@! TF.FileFunction,Copper,L4,Bot*
G04 #@! TF.FilePolarity,Positive*
%FSLAX46Y46*%
G04 Gerber Fmt 4.6, Leading zero omitted, Abs format (unit mm)*
G04 Created by KiCad (PCBNEW 9.0.4) date 2026-05-30 13:30:11*
%MOMM*%
%LPD*%
G01*
G04 APERTURE LIST*
G04 Aperture macros list*
%AMRoundRect*
0 Rectangle with rounded corners*
0 $1 Rounding radius*
0 $2 $3 $4 $5 $6 $7 $8 $9 X,Y pos of 4 corners*
0 Add a 4 corners polygon primitive as box body*
4,1,4,$2,$3,$4,$5,$6,$7,$8,$9,$2,$3,0*
0 Add four circle primitives for the rounded corners*
1,1,$1+$1,$2,$3*
1,1,$1+$1,$4,$5*
1,1,$1+$1,$6,$7*
1,1,$1+$1,$8,$9*
0 Add four rect primitives between the rounded corners*
20,1,$1+$1,$2,$3,$4,$5,0*
20,1,$1+$1,$4,$5,$6,$7,0*
20,1,$1+$1,$6,$7,$8,$9,0*
20,1,$1+$1,$8,$9,$2,$3,0*%
G04 Aperture macros list end*
G04 #@! TA.AperFunction,ComponentPad*
%ADD10R,1.700000X1.700000*%
G04 #@! TD*
G04 #@! TA.AperFunction,ComponentPad*
%ADD11C,1.700000*%
G04 #@! TD*
G04 #@! TA.AperFunction,ComponentPad*
%ADD12RoundRect,0.277778X1.622222X-0.722222X1.622222X0.722222X-1.622222X0.722222X-1.622222X-0.722222X0*%
G04 #@! TD*
G04 #@! TA.AperFunction,ComponentPad*
%ADD13O,3.800000X2.000000*%
G04 #@! TD*
G04 #@! TA.AperFunction,HeatsinkPad*
%ADD14O,2.100000X1.000000*%
G04 #@! TD*
G04 #@! TA.AperFunction,HeatsinkPad*
%ADD15O,1.600000X1.000000*%
G04 #@! TD*
G04 #@! TA.AperFunction,ViaPad*
%ADD16C,0.600000*%
G04 #@! TD*
G04 #@! TA.AperFunction,Conductor*
%ADD17C,0.152000*%
G04 #@! TD*
G04 #@! TA.AperFunction,Conductor*
%ADD18C,0.203200*%
G04 #@! TD*
G04 APERTURE END LIST*
D10*
X70400000Y-91000000D03*
D11*
X70400000Y-88460000D03*
D10*
X64060000Y-52800000D03*
D11*
X66600000Y-52800000D03*
X69140000Y-52800000D03*
X71680000Y-52800000D03*
D10*
X90600000Y-88125000D03*
D11*
X90600000Y-90665000D03*
D12*
X96500000Y-83500000D03*
D13*
X96500000Y-80000000D03*
X96500000Y-76500000D03*
D14*
X55970000Y-75280000D03*
D15*
X51790000Y-75280000D03*
D14*
X55970000Y-83920000D03*
D15*
X51790000Y-83920000D03*
D16*
X73487500Y-101475000D03*
X83000000Y-71600000D03*
X71400000Y-68800000D03*
X85800000Y-69200000D03*
X76800000Y-66400000D03*
X69200000Y-68800000D03*
X62800000Y-52800000D03*
X86800000Y-60000000D03*
X58200000Y-55600000D03*
X80478000Y-76000000D03*
X68200000Y-55600000D03*
X71400000Y-56200000D03*
X79950000Y-75050000D03*
X79600000Y-70600000D03*
X90400000Y-70000000D03*
X82400000Y-78400000D03*
X89400000Y-53600000D03*
X83400000Y-60600000D03*
X72000000Y-85200000D03*
X69200000Y-85400000D03*
X68200000Y-85200000D03*
X76600000Y-63200000D03*
X73200000Y-63200000D03*
X69800000Y-63000000D03*
X74600000Y-68600000D03*
X73497744Y-69351039D03*
X66600000Y-63200000D03*
X74600000Y-69400000D03*
X73600000Y-70200000D03*
X88200000Y-89800000D03*
X91400000Y-93200000D03*
X92033000Y-82767000D03*
X92000000Y-77400000D03*
X80600000Y-68400000D03*
X69210000Y-70600000D03*
X83127545Y-64980840D03*
X77079210Y-70267496D03*
X81600000Y-65000000D03*
X76273353Y-70073353D03*
X70200000Y-85000000D03*
X90600000Y-96000000D03*
X88600000Y-96400000D03*
X74672000Y-85000000D03*
X73200000Y-85200000D03*
X76400000Y-93000000D03*
X76600000Y-88000000D03*
X74000000Y-85400000D03*
D17*
X81600000Y-70800000D02*
X85000000Y-67400000D01*
X70600000Y-67200000D02*
X66600000Y-63200000D01*
X74600000Y-67400000D02*
X74600000Y-64600000D01*
X69210000Y-70600000D02*
X72600000Y-70600000D01*
X72600000Y-70600000D02*
X72796496Y-70796496D01*
X72796496Y-70796496D02*
X78203504Y-70796496D01*
X78203504Y-70796496D02*
X80600000Y-68400000D01*
X86600000Y-60000000D02*
X86800000Y-60000000D01*
X86000000Y-60600000D02*
X86600000Y-60000000D01*
X58200000Y-52600000D02*
X58200000Y-55600000D01*
X60000000Y-50800000D02*
X58200000Y-52600000D01*
X92800000Y-50800000D02*
X89800000Y-50800000D01*
X89800000Y-50800000D02*
X60000000Y-50800000D01*
X93800000Y-51800000D02*
X92800000Y-50800000D01*
X93800000Y-62600000D02*
X93800000Y-51800000D01*
X80478000Y-76000000D02*
X80478000Y-75922000D01*
X80478000Y-75922000D02*
X93800000Y-62600000D01*
X80478000Y-76000000D02*
X80255000Y-76000000D01*
X65800000Y-55800000D02*
X66000000Y-55600000D01*
X64600000Y-87454000D02*
X64600000Y-57200000D01*
X76546000Y-99400000D02*
X64600000Y-87454000D01*
X82400000Y-99400000D02*
X76546000Y-99400000D01*
X64600000Y-57200000D02*
X64600000Y-57000000D01*
X66000000Y-55600000D02*
X68200000Y-55600000D01*
X64600000Y-57000000D02*
X65800000Y-55800000D01*
X91200000Y-99400000D02*
X82400000Y-99400000D01*
X92200000Y-98400000D02*
X91200000Y-99400000D01*
X92200000Y-96000000D02*
X92200000Y-98400000D01*
X79950000Y-75050000D02*
X79950000Y-83750000D01*
X79950000Y-83750000D02*
X92200000Y-96000000D01*
X68200000Y-56200000D02*
X71400000Y-56200000D01*
X65600000Y-58800000D02*
X68200000Y-56200000D01*
X79600000Y-70600000D02*
X76400000Y-73800000D01*
X76400000Y-73800000D02*
X68600000Y-73800000D01*
X65600000Y-70800000D02*
X65600000Y-58800000D01*
X68600000Y-73800000D02*
X65600000Y-70800000D01*
X90400000Y-70400000D02*
X90400000Y-70000000D01*
X82400000Y-78400000D02*
X90400000Y-70400000D01*
X69200000Y-83200000D02*
X81600000Y-70800000D01*
X88000000Y-58800000D02*
X89400000Y-57400000D01*
X85000000Y-67400000D02*
X85000000Y-60200000D01*
X85000000Y-60200000D02*
X86400000Y-58800000D01*
X69200000Y-85400000D02*
X69200000Y-83200000D01*
X86400000Y-58800000D02*
X88000000Y-58800000D01*
X89400000Y-57400000D02*
X89400000Y-53600000D01*
X83400000Y-60600000D02*
X83400000Y-60400000D01*
X85400000Y-61200000D02*
X86000000Y-60600000D01*
X85400000Y-67800000D02*
X85400000Y-61200000D01*
X84600000Y-61800000D02*
X83400000Y-60600000D01*
X84600000Y-66400000D02*
X84600000Y-61800000D01*
X72200000Y-81000000D02*
X85400000Y-67800000D01*
X70400000Y-80600000D02*
X84600000Y-66400000D01*
X72000000Y-81200000D02*
X72200000Y-81000000D01*
X72000000Y-85200000D02*
X72000000Y-81200000D01*
X69200000Y-85400000D02*
X69000000Y-85400000D01*
X68200000Y-82800000D02*
X70400000Y-80600000D01*
X68200000Y-85200000D02*
X68200000Y-82800000D01*
X74600000Y-69400000D02*
X75600000Y-68400000D01*
X75600000Y-68400000D02*
X75600000Y-64200000D01*
X75600000Y-64200000D02*
X76600000Y-63200000D01*
X74600000Y-64600000D02*
X73200000Y-63200000D01*
X74600000Y-68600000D02*
X74600000Y-67400000D01*
X69800000Y-63600000D02*
X69800000Y-63000000D01*
X70000000Y-63800000D02*
X69800000Y-63600000D01*
X73497744Y-69351039D02*
X73497744Y-67297744D01*
X73497744Y-67297744D02*
X70000000Y-63800000D01*
X66400000Y-63200000D02*
X66600000Y-63200000D01*
X73600000Y-70200000D02*
X70600000Y-67200000D01*
D18*
X88200000Y-86600000D02*
X88200000Y-89800000D01*
X92033000Y-82767000D02*
X88200000Y-86600000D01*
X92800000Y-93200000D02*
X91400000Y-93200000D01*
X92000000Y-77400000D02*
X92800000Y-78200000D01*
X92800000Y-78200000D02*
X92800000Y-93200000D01*
D17*
X77732504Y-70267496D02*
X83019160Y-64980840D01*
X83019160Y-64980840D02*
X83127545Y-64980840D01*
X77079210Y-70267496D02*
X77732504Y-70267496D01*
X76526647Y-70073353D02*
X81600000Y-65000000D01*
X76273353Y-70073353D02*
X76526647Y-70073353D01*
X89800000Y-97200000D02*
X89800000Y-96800000D01*
X72600000Y-87400000D02*
X72600000Y-92800000D01*
X70200000Y-85000000D02*
X72600000Y-87400000D01*
X72600000Y-92800000D02*
X77000000Y-97200000D01*
X77000000Y-97200000D02*
X89800000Y-97200000D01*
X89800000Y-96800000D02*
X90600000Y-96000000D01*
X82200000Y-96400000D02*
X88600000Y-96400000D01*
X81000000Y-95200000D02*
X82200000Y-96400000D01*
X74672000Y-85000000D02*
X77000000Y-85000000D01*
X81000000Y-89000000D02*
X81000000Y-95200000D01*
X77000000Y-85000000D02*
X81000000Y-89000000D01*
X74000000Y-85400000D02*
X76600000Y-88000000D01*
X73200000Y-85200000D02*
X73200000Y-89800000D01*
X73200000Y-89800000D02*
X76400000Y-93000000D01*
G04 #@! TA.AperFunction,Conductor*
G36*
X99677826Y-50322174D02*
G01*
X99699500Y-50374500D01*
X99699500Y-109625500D01*
X99677826Y-109677826D01*
X99625500Y-109699500D01*
X50374500Y-109699500D01*
X50322174Y-109677826D01*
X50300500Y-109625500D01*
X50300500Y-105874036D01*
X52399500Y-105874036D01*
X52399500Y-106125963D01*
X52438909Y-106374782D01*
X52438912Y-106374795D01*
X52516756Y-106614373D01*
X52631129Y-106838845D01*
X52779203Y-107042651D01*
X52779207Y-107042656D01*
X52957344Y-107220793D01*
X52957347Y-107220795D01*
X52957348Y-107220796D01*
X53161154Y-107368870D01*
X53269345Y-107423995D01*
X53385621Y-107483241D01*
X53385623Y-107483241D01*
X53385626Y-107483243D01*
X53625204Y-107561087D01*
X53625210Y-107561088D01*
X53625215Y-107561090D01*
X53749626Y-107580795D01*
X53874036Y-107600500D01*
X53874038Y-107600500D01*
X54125964Y-107600500D01*
X54225491Y-107584736D01*
X54374785Y-107561090D01*
X54374792Y-107561087D01*
X54374795Y-107561087D01*
X54614373Y-107483243D01*
X54614373Y-107483242D01*
X54614379Y-107483241D01*
X54838845Y-107368870D01*
X55042656Y-107220793D01*
X55220793Y-107042656D01*
X55368870Y-106838845D01*
X55483241Y-106614379D01*
X55561090Y-106374785D01*
X55600500Y-106125962D01*
X55600500Y-105874038D01*
X55600500Y-105874036D01*
X94399500Y-105874036D01*
X94399500Y-106125963D01*
X94438909Y-106374782D01*
X94438912Y-106374795D01*
X94516756Y-106614373D01*
X94631129Y-106838845D01*
X94779203Y-107042651D01*
X94779207Y-107042656D01*
X94957344Y-107220793D01*
X94957347Y-107220795D01*
X94957348Y-107220796D01*
X95161154Y-107368870D01*
X95269345Y-107423995D01*
X95385621Y-107483241D01*
X95385623Y-107483241D01*
X95385626Y-107483243D01*
X95625204Y-107561087D01*
X95625210Y-107561088D01*
X95625215Y-107561090D01*
X95749626Y-107580795D01*
X95874036Y-107600500D01*
X95874038Y-107600500D01*
X96125964Y-107600500D01*
X96225491Y-107584736D01*
X96374785Y-107561090D01*
X96374792Y-107561087D01*
X96374795Y-107561087D01*
X96614373Y-107483243D01*
X96614373Y-107483242D01*
X96614379Y-107483241D01*
X96838845Y-107368870D01*
X97042656Y-107220793D01*
X97220793Y-107042656D01*
X97368870Y-106838845D01*
X97483241Y-106614379D01*
X97561090Y-106374785D01*
X97600500Y-106125962D01*
X97600500Y-105874038D01*
X97561090Y-105625215D01*
X97561088Y-105625210D01*
X97561087Y-105625204D01*
X97483243Y-105385626D01*
X97483241Y-105385623D01*
X97483241Y-105385621D01*
X97423995Y-105269345D01*
X97368870Y-105161154D01*
X97220796Y-104957348D01*
X97220795Y-104957347D01*
X97220793Y-104957344D01*
X97042656Y-104779207D01*
X97042653Y-104779204D01*
X97042651Y-104779203D01*
X96838845Y-104631129D01*
X96614373Y-104516756D01*
X96374795Y-104438912D01*
X96374782Y-104438909D01*
X96125964Y-104399500D01*
X96125962Y-104399500D01*
X95874038Y-104399500D01*
X95874036Y-104399500D01*
X95625217Y-104438909D01*
X95625204Y-104438912D01*
X95385626Y-104516756D01*
X95161154Y-104631129D01*
X94957348Y-104779203D01*
X94779203Y-104957348D01*
X94631129Y-105161154D01*
X94516756Y-105385626D01*
X94438912Y-105625204D01*
X94438909Y-105625217D01*
X94399500Y-105874036D01*
X55600500Y-105874036D01*
X55561090Y-105625215D01*
X55561088Y-105625210D01*
X55561087Y-105625204D01*
X55483243Y-105385626D01*
X55483241Y-105385623D01*
X55483241Y-105385621D01*
X55423995Y-105269345D01*
X55368870Y-105161154D01*
X55220796Y-104957348D01*
X55220795Y-104957347D01*
X55220793Y-104957344D01*
X55042656Y-104779207D01*
X55042653Y-104779204D01*
X55042651Y-104779203D01*
X54838845Y-104631129D01*
X54614373Y-104516756D01*
X54374795Y-104438912D01*
X54374782Y-104438909D01*
X54125964Y-104399500D01*
X54125962Y-104399500D01*
X53874038Y-104399500D01*
X53874036Y-104399500D01*
X53625217Y-104438909D01*
X53625204Y-104438912D01*
X53385626Y-104516756D01*
X53161154Y-104631129D01*
X52957348Y-104779203D01*
X52779203Y-104957348D01*
X52631129Y-105161154D01*
X52516756Y-105385626D01*
X52438912Y-105625204D01*
X52438909Y-105625217D01*
X52399500Y-105874036D01*
X50300500Y-105874036D01*
X50300500Y-82414231D01*
X54864500Y-82414231D01*
X54864500Y-82565768D01*
X54903717Y-82712130D01*
X54903721Y-82712139D01*
X54979483Y-82843362D01*
X54979485Y-82843365D01*
X55086635Y-82950515D01*
X55217865Y-83026281D01*
X55364231Y-83065499D01*
X55364232Y-83065500D01*
X55364234Y-83065500D01*
X55515768Y-83065500D01*
X55515768Y-83065499D01*
X55662135Y-83026281D01*
X55793365Y-82950515D01*
X55900515Y-82843365D01*
X55976281Y-82712135D01*
X56015499Y-82565768D01*
X56015500Y-82565768D01*
X56015500Y-82414232D01*
X56015499Y-82414231D01*
X55976282Y-82267869D01*
X55976281Y-82267865D01*
X55900515Y-82136635D01*
X55793365Y-82029485D01*
X55793362Y-82029483D01*
X55662139Y-81953721D01*
X55662130Y-81953717D01*
X55515768Y-81914500D01*
X55515766Y-81914500D01*
X55364234Y-81914500D01*
X55364232Y-81914500D01*
X55217869Y-81953717D01*
X55217860Y-81953721D01*
X55086637Y-82029483D01*
X54979483Y-82136637D01*
X54903721Y-82267860D01*
X54903717Y-82267869D01*
X54864500Y-82414231D01*
X50300500Y-82414231D01*
X50300500Y-76634231D01*
X54864500Y-76634231D01*
X54864500Y-76785768D01*
X54903717Y-76932130D01*
X54903721Y-76932139D01*
X54942612Y-76999500D01*
X54979485Y-77063365D01*
X55086635Y-77170515D01*
X55217865Y-77246281D01*
X55364231Y-77285499D01*
X55364232Y-77285500D01*
X55364234Y-77285500D01*
X55515768Y-77285500D01*
X55515768Y-77285499D01*
X55662135Y-77246281D01*
X55793365Y-77170515D01*
X55900515Y-77063365D01*
X55976281Y-76932135D01*
X56015499Y-76785768D01*
X56015500Y-76785768D01*
X56015500Y-76634232D01*
X56015499Y-76634231D01*
X55976282Y-76487869D01*
X55976281Y-76487865D01*
X55900515Y-76356635D01*
X55793365Y-76249485D01*
X55695853Y-76193186D01*
X55662139Y-76173721D01*
X55662130Y-76173717D01*
X55515768Y-76134500D01*
X55515766Y-76134500D01*
X55364234Y-76134500D01*
X55364232Y-76134500D01*
X55217869Y-76173717D01*
X55217860Y-76173721D01*
X55086637Y-76249483D01*
X54979483Y-76356637D01*
X54903721Y-76487860D01*
X54903717Y-76487869D01*
X54864500Y-76634231D01*
X50300500Y-76634231D01*
X50300500Y-53874036D01*
X52399500Y-53874036D01*
X52399500Y-54125963D01*
X52438909Y-54374782D01*
X52438912Y-54374795D01*
X52516756Y-54614373D01*
X52631129Y-54838845D01*
X52779203Y-55042651D01*
X52779207Y-55042656D01*
X52957344Y-55220793D01*
X52957347Y-55220795D01*
X52957348Y-55220796D01*
X53161154Y-55368870D01*
X53235624Y-55406814D01*
X53385621Y-55483241D01*
X53385623Y-55483241D01*
X53385626Y-55483243D01*
X53625204Y-55561087D01*
X53625210Y-55561088D01*
X53625215Y-55561090D01*
X53749626Y-55580795D01*
X53874036Y-55600500D01*
X53874038Y-55600500D01*
X54125964Y-55600500D01*
X54225491Y-55584736D01*
X54374785Y-55561090D01*
X54374792Y-55561087D01*
X54374795Y-55561087D01*
X54457834Y-55534105D01*
X57699500Y-55534105D01*
X57699500Y-55665894D01*
X57733606Y-55793181D01*
X57733607Y-55793184D01*
X57733608Y-55793186D01*
X57799500Y-55907314D01*
X57892686Y-56000500D01*
X58006814Y-56066392D01*
X58134105Y-56100499D01*
X58134106Y-56100500D01*
X58134108Y-56100500D01*
X58265894Y-56100500D01*
X58265894Y-56100499D01*
X58393186Y-56066392D01*
X58507314Y-56000500D01*
X58600500Y-55907314D01*
X58666392Y-55793186D01*
X58700499Y-55665894D01*
X58700500Y-55665894D01*
X58700500Y-55534106D01*
X58700499Y-55534105D01*
X58686870Y-55483242D01*
X58666392Y-55406814D01*
X58600500Y-55292686D01*
X58507314Y-55199500D01*
X58507311Y-55199498D01*
X58507309Y-55199496D01*
X58505448Y-55198068D01*
X58504856Y-55197043D01*
X58503884Y-55196071D01*
X58504144Y-55195810D01*
X58477132Y-55149017D01*
X58476500Y-55139363D01*
X58476500Y-52745182D01*
X58496650Y-52696535D01*
X65549500Y-52696535D01*
X65549500Y-52903464D01*
X65589868Y-53106413D01*
X65589870Y-53106420D01*
X65669059Y-53297598D01*
X65784023Y-53469655D01*
X65930345Y-53615977D01*
X66102402Y-53730941D01*
X66293580Y-53810130D01*
X66496535Y-53850500D01*
X66496536Y-53850500D01*
X66703464Y-53850500D01*
X66703465Y-53850500D01*
X66906420Y-53810130D01*
X67097598Y-53730941D01*
X67269655Y-53615977D01*
X67415977Y-53469655D01*
X67530941Y-53297598D01*
X67610130Y-53106420D01*
X67650500Y-52903465D01*
X67650500Y-52696535D01*
X68089500Y-52696535D01*
X68089500Y-52903464D01*
X68129868Y-53106413D01*
X68129870Y-53106420D01*
X68209059Y-53297598D01*
X68324023Y-53469655D01*
X68470345Y-53615977D01*
X68642402Y-53730941D01*
X68833580Y-53810130D01*
X69036535Y-53850500D01*
X69036536Y-53850500D01*
X69243464Y-53850500D01*
X69243465Y-53850500D01*
X69446420Y-53810130D01*
X69637598Y-53730941D01*
X69809655Y-53615977D01*
X69955977Y-53469655D01*
X70070941Y-53297598D01*
X70150130Y-53106420D01*
X70190500Y-52903465D01*
X70190500Y-52696535D01*
X70629500Y-52696535D01*
X70629500Y-52903464D01*
X70669868Y-53106413D01*
X70669870Y-53106420D01*
X70749059Y-53297598D01*
X70864023Y-53469655D01*
X71010345Y-53615977D01*
X71182402Y-53730941D01*
X71373580Y-53810130D01*
X71576535Y-53850500D01*
X71576536Y-53850500D01*
X71783464Y-53850500D01*
X71783465Y-53850500D01*
X71986420Y-53810130D01*
X72177598Y-53730941D01*
X72349655Y-53615977D01*
X72495977Y-53469655D01*
X72610941Y-53297598D01*
X72690130Y-53106420D01*
X72730500Y-52903465D01*
X72730500Y-52696535D01*
X72690130Y-52493580D01*
X72610941Y-52302402D01*
X72495977Y-52130345D01*
X72349655Y-51984023D01*
X72177598Y-51869059D01*
X71986420Y-51789870D01*
X71986413Y-51789868D01*
X71833516Y-51759455D01*
X71783465Y-51749500D01*
X71576535Y-51749500D01*
X71536385Y-51757486D01*
X71373586Y-51789868D01*
X71373579Y-51789870D01*
X71182401Y-51869059D01*
X71010345Y-51984022D01*
X71010344Y-51984024D01*
X70864024Y-52130344D01*
X70864022Y-52130345D01*
X70749059Y-52302401D01*
X70669870Y-52493579D01*
X70669868Y-52493586D01*
X70629500Y-52696535D01*
X70190500Y-52696535D01*
X70150130Y-52493580D01*
X70070941Y-52302402D01*
X69955977Y-52130345D01*
X69809655Y-51984023D01*
X69637598Y-51869059D01*
X69446420Y-51789870D01*
X69446413Y-51789868D01*
X69293516Y-51759455D01*
X69243465Y-51749500D01*
X69036535Y-51749500D01*
X68996385Y-51757486D01*
X68833586Y-51789868D01*
X68833579Y-51789870D01*
X68642401Y-51869059D01*
X68470345Y-51984022D01*
X68470344Y-51984024D01*
X68324024Y-52130344D01*
X68324022Y-52130345D01*
X68209059Y-52302401D01*
X68129870Y-52493579D01*
X68129868Y-52493586D01*
X68089500Y-52696535D01*
X67650500Y-52696535D01*
X67610130Y-52493580D01*
X67530941Y-52302402D01*
X67415977Y-52130345D01*
X67269655Y-51984023D01*
X67097598Y-51869059D01*
X66906420Y-51789870D01*
X66906413Y-51789868D01*
X66753516Y-51759455D01*
X66703465Y-51749500D01*
X66496535Y-51749500D01*
X66456385Y-51757486D01*
X66293586Y-51789868D01*
X66293579Y-51789870D01*
X66102401Y-51869059D01*
X65930345Y-51984022D01*
X65930344Y-51984024D01*
X65784024Y-52130344D01*
X65784022Y-52130345D01*
X65669059Y-52302401D01*
X65589870Y-52493579D01*
X65589868Y-52493586D01*
X65549500Y-52696535D01*
X58496650Y-52696535D01*
X58498174Y-52692856D01*
X60092856Y-51098174D01*
X60145182Y-51076500D01*
X89745001Y-51076500D01*
X92654818Y-51076500D01*
X92707144Y-51098174D01*
X93501826Y-51892856D01*
X93523500Y-51945182D01*
X93523500Y-62454818D01*
X93501826Y-62507144D01*
X80531144Y-75477826D01*
X80483089Y-75499377D01*
X80480961Y-75499500D01*
X80412108Y-75499500D01*
X80393165Y-75504575D01*
X80385600Y-75505013D01*
X80365463Y-75498004D01*
X80344327Y-75495221D01*
X80339539Y-75488980D01*
X80332110Y-75486395D01*
X80322826Y-75467199D01*
X80309850Y-75450286D01*
X80310876Y-75442488D01*
X80307452Y-75435407D01*
X80314460Y-75415270D01*
X80317244Y-75394134D01*
X80325614Y-75383226D01*
X80326070Y-75381917D01*
X80326942Y-75381494D01*
X80329000Y-75378813D01*
X80350500Y-75357314D01*
X80416392Y-75243186D01*
X80450499Y-75115894D01*
X80450500Y-75115894D01*
X80450500Y-74984106D01*
X80450499Y-74984105D01*
X80416393Y-74856818D01*
X80416392Y-74856814D01*
X80350500Y-74742686D01*
X80257314Y-74649500D01*
X80143190Y-74583610D01*
X80143181Y-74583606D01*
X80015894Y-74549500D01*
X80015892Y-74549500D01*
X79884108Y-74549500D01*
X79884106Y-74549500D01*
X79756818Y-74583606D01*
X79756809Y-74583610D01*
X79642685Y-74649500D01*
X79549500Y-74742685D01*
X79483610Y-74856809D01*
X79483606Y-74856818D01*
X79449500Y-74984105D01*
X79449500Y-75115894D01*
X79483606Y-75243181D01*
X79483610Y-75243190D01*
X79549500Y-75357314D01*
X79642685Y-75450499D01*
X79644546Y-75451927D01*
X79645137Y-75452951D01*
X79646116Y-75453930D01*
X79645853Y-75454192D01*
X79672866Y-75500975D01*
X79673500Y-75510637D01*
X79673500Y-83804998D01*
X79673499Y-83804998D01*
X79715594Y-83906624D01*
X91901826Y-96092856D01*
X91923500Y-96145182D01*
X91923500Y-98254817D01*
X91901826Y-98307143D01*
X91107144Y-99101826D01*
X91054818Y-99123500D01*
X76691182Y-99123500D01*
X76638856Y-99101826D01*
X69713856Y-92176826D01*
X69692182Y-92124500D01*
X69713856Y-92072174D01*
X69766182Y-92050500D01*
X71269746Y-92050500D01*
X71269748Y-92050500D01*
X71328231Y-92038867D01*
X71394552Y-91994552D01*
X71438867Y-91928231D01*
X71450500Y-91869748D01*
X71450500Y-90130252D01*
X71438867Y-90071769D01*
X71394552Y-90005448D01*
X71344767Y-89972182D01*
X71328232Y-89961133D01*
X71328233Y-89961133D01*
X71298989Y-89955316D01*
X71269748Y-89949500D01*
X69530252Y-89949500D01*
X69501010Y-89955316D01*
X69471767Y-89961133D01*
X69405449Y-90005447D01*
X69405447Y-90005449D01*
X69361133Y-90071767D01*
X69349500Y-90130253D01*
X69349500Y-91633818D01*
X69327826Y-91686144D01*
X69275500Y-91707818D01*
X69223174Y-91686144D01*
X65893565Y-88356535D01*
X69349500Y-88356535D01*
X69349500Y-88563464D01*
X69389868Y-88766413D01*
X69389870Y-88766420D01*
X69469059Y-88957598D01*
X69584023Y-89129655D01*
X69730345Y-89275977D01*
X69902402Y-89390941D01*
X70093580Y-89470130D01*
X70296535Y-89510500D01*
X70296536Y-89510500D01*
X70503464Y-89510500D01*
X70503465Y-89510500D01*
X70706420Y-89470130D01*
X70897598Y-89390941D01*
X71069655Y-89275977D01*
X71215977Y-89129655D01*
X71330941Y-88957598D01*
X71410130Y-88766420D01*
X71450500Y-88563465D01*
X71450500Y-88356535D01*
X71410130Y-88153580D01*
X71330941Y-87962402D01*
X71215977Y-87790345D01*
X71069655Y-87644023D01*
X70897598Y-87529059D01*
X70706420Y-87449870D01*
X70706413Y-87449868D01*
X70553516Y-87419455D01*
X70503465Y-87409500D01*
X70296535Y-87409500D01*
X70256385Y-87417486D01*
X70093586Y-87449868D01*
X70093579Y-87449870D01*
X69902401Y-87529059D01*
X69730345Y-87644022D01*
X69730344Y-87644024D01*
X69584024Y-87790344D01*
X69584022Y-87790345D01*
X69469059Y-87962401D01*
X69389870Y-88153579D01*
X69389868Y-88153586D01*
X69349500Y-88356535D01*
X65893565Y-88356535D01*
X64898174Y-87361144D01*
X64876500Y-87308818D01*
X64876500Y-57145182D01*
X64898174Y-57092856D01*
X66092856Y-55898174D01*
X66145182Y-55876500D01*
X67739363Y-55876500D01*
X67791689Y-55898174D01*
X67798068Y-55905448D01*
X67799496Y-55907309D01*
X67799498Y-55907311D01*
X67799500Y-55907314D01*
X67848811Y-55956625D01*
X67896116Y-56003930D01*
X67894691Y-56005354D01*
X67919573Y-56048454D01*
X67904913Y-56103160D01*
X67898532Y-56110436D01*
X65443375Y-58565595D01*
X65365596Y-58643374D01*
X65365594Y-58643375D01*
X65323500Y-58745001D01*
X65323500Y-70854998D01*
X65323499Y-70854998D01*
X65365594Y-70956624D01*
X68443375Y-74034405D01*
X68545001Y-74076500D01*
X76353817Y-74076500D01*
X76406143Y-74098174D01*
X76427817Y-74150500D01*
X76406143Y-74202826D01*
X70243375Y-80365595D01*
X67965596Y-82643374D01*
X67965594Y-82643375D01*
X67923500Y-82745001D01*
X67923500Y-84739363D01*
X67901826Y-84791689D01*
X67894552Y-84798068D01*
X67892690Y-84799496D01*
X67799500Y-84892685D01*
X67733610Y-85006809D01*
X67733606Y-85006818D01*
X67699500Y-85134105D01*
X67699500Y-85265894D01*
X67733606Y-85393181D01*
X67733610Y-85393190D01*
X67795389Y-85500194D01*
X67799500Y-85507314D01*
X67892686Y-85600500D01*
X68006814Y-85666392D01*
X68134105Y-85700499D01*
X68134106Y-85700500D01*
X68134108Y-85700500D01*
X68265894Y-85700500D01*
X68265894Y-85700499D01*
X68393186Y-85666392D01*
X68507314Y-85600500D01*
X68596702Y-85511111D01*
X68649027Y-85489438D01*
X68701353Y-85511112D01*
X68720504Y-85544282D01*
X68729597Y-85578216D01*
X68733609Y-85593188D01*
X68733610Y-85593190D01*
X68772551Y-85660637D01*
X68799500Y-85707314D01*
X68892686Y-85800500D01*
X69006814Y-85866392D01*
X69134105Y-85900499D01*
X69134106Y-85900500D01*
X69134108Y-85900500D01*
X69265894Y-85900500D01*
X69265894Y-85900499D01*
X69393186Y-85866392D01*
X69507314Y-85800500D01*
X69600500Y-85707314D01*
X69666392Y-85593186D01*
X69700499Y-85465894D01*
X69700500Y-85465894D01*
X69700500Y-85386966D01*
X69722174Y-85334640D01*
X69774500Y-85312966D01*
X69826826Y-85334640D01*
X69892686Y-85400500D01*
X70006814Y-85466392D01*
X70134105Y-85500499D01*
X70134106Y-85500500D01*
X70134108Y-85500500D01*
X70265889Y-85500500D01*
X70265892Y-85500500D01*
X70265894Y-85500499D01*
X70268212Y-85500194D01*
X70269354Y-85500500D01*
X70270743Y-85500500D01*
X70270743Y-85500871D01*
X70322921Y-85514848D01*
X70330204Y-85521234D01*
X72301826Y-87492856D01*
X72323500Y-87545182D01*
X72323500Y-92854998D01*
X72323499Y-92854998D01*
X72365594Y-92956624D01*
X72365595Y-92956625D01*
X76765595Y-97356625D01*
X76843375Y-97434405D01*
X76945001Y-97476500D01*
X89854998Y-97476500D01*
X89854999Y-97476500D01*
X89956625Y-97434405D01*
X90034405Y-97356625D01*
X90076500Y-97254999D01*
X90076500Y-96945181D01*
X90098173Y-96892856D01*
X90469795Y-96521233D01*
X90522120Y-96499560D01*
X90531783Y-96500194D01*
X90534106Y-96500500D01*
X90534108Y-96500500D01*
X90665894Y-96500500D01*
X90665894Y-96500499D01*
X90793186Y-96466392D01*
X90907314Y-96400500D01*
X91000500Y-96307314D01*
X91066392Y-96193186D01*
X91100499Y-96065894D01*
X91100500Y-96065894D01*
X91100500Y-95934106D01*
X91100499Y-95934105D01*
X91100366Y-95933610D01*
X91066392Y-95806814D01*
X91000500Y-95692686D01*
X90907314Y-95599500D01*
X90793190Y-95533610D01*
X90793181Y-95533606D01*
X90665894Y-95499500D01*
X90665892Y-95499500D01*
X90534108Y-95499500D01*
X90534106Y-95499500D01*
X90406818Y-95533606D01*
X90406809Y-95533610D01*
X90292685Y-95599500D01*
X90199500Y-95692685D01*
X90133610Y-95806809D01*
X90133606Y-95806818D01*
X90099500Y-95934105D01*
X90099500Y-96065896D01*
X90099806Y-96068222D01*
X90099500Y-96069363D01*
X90099500Y-96070742D01*
X90099131Y-96070742D01*
X90085145Y-96122928D01*
X90078765Y-96130203D01*
X89643375Y-96565595D01*
X89565596Y-96643374D01*
X89565594Y-96643375D01*
X89523500Y-96745001D01*
X89523500Y-96849500D01*
X89501826Y-96901826D01*
X89449500Y-96923500D01*
X88962966Y-96923500D01*
X88910640Y-96901826D01*
X88888966Y-96849500D01*
X88910640Y-96797174D01*
X89000500Y-96707314D01*
X89066392Y-96593186D01*
X89100499Y-96465894D01*
X89100500Y-96465894D01*
X89100500Y-96334106D01*
X89100499Y-96334105D01*
X89093320Y-96307314D01*
X89066392Y-96206814D01*
X89000500Y-96092686D01*
X88907314Y-95999500D01*
X88793190Y-95933610D01*
X88793181Y-95933606D01*
X88665894Y-95899500D01*
X88665892Y-95899500D01*
X88534108Y-95899500D01*
X88534106Y-95899500D01*
X88406818Y-95933606D01*
X88406809Y-95933610D01*
X88292685Y-95999500D01*
X88199496Y-96092690D01*
X88198068Y-96094552D01*
X88197043Y-96095143D01*
X88196071Y-96096116D01*
X88195810Y-96095855D01*
X88149017Y-96122868D01*
X88139363Y-96123500D01*
X82345182Y-96123500D01*
X82292856Y-96101826D01*
X81298174Y-95107144D01*
X81276500Y-95054818D01*
X81276500Y-88945001D01*
X81234405Y-88843375D01*
X77156624Y-84765594D01*
X77097093Y-84740935D01*
X77054999Y-84723500D01*
X77054998Y-84723500D01*
X75132637Y-84723500D01*
X75080311Y-84701826D01*
X75073932Y-84694552D01*
X75072503Y-84692690D01*
X75072501Y-84692688D01*
X75072500Y-84692686D01*
X74979314Y-84599500D01*
X74917641Y-84563893D01*
X74865190Y-84533610D01*
X74865181Y-84533606D01*
X74737894Y-84499500D01*
X74737892Y-84499500D01*
X74606108Y-84499500D01*
X74606106Y-84499500D01*
X74478818Y-84533606D01*
X74478809Y-84533610D01*
X74364685Y-84599500D01*
X74271500Y-84692685D01*
X74205608Y-84806812D01*
X74205607Y-84806816D01*
X74192229Y-84856742D01*
X74157750Y-84901674D01*
X74101600Y-84909067D01*
X74065893Y-84899500D01*
X74065892Y-84899500D01*
X73934108Y-84899500D01*
X73934106Y-84899500D01*
X73806818Y-84933606D01*
X73806809Y-84933610D01*
X73733884Y-84975714D01*
X73677731Y-84983107D01*
X73632798Y-84948628D01*
X73627895Y-84940136D01*
X73600500Y-84892686D01*
X73507314Y-84799500D01*
X73448589Y-84765595D01*
X73393190Y-84733610D01*
X73393181Y-84733606D01*
X73265894Y-84699500D01*
X73265892Y-84699500D01*
X73134108Y-84699500D01*
X73134106Y-84699500D01*
X73006818Y-84733606D01*
X73006809Y-84733610D01*
X72892685Y-84799500D01*
X72799500Y-84892685D01*
X72733610Y-85006809D01*
X72733606Y-85006818D01*
X72699500Y-85134105D01*
X72699500Y-85265894D01*
X72733606Y-85393181D01*
X72733610Y-85393190D01*
X72799500Y-85507314D01*
X72892685Y-85600499D01*
X72894546Y-85601927D01*
X72895137Y-85602951D01*
X72896116Y-85603930D01*
X72895853Y-85604192D01*
X72922866Y-85650975D01*
X72923500Y-85660637D01*
X72923500Y-87153817D01*
X72901826Y-87206143D01*
X72849500Y-87227817D01*
X72797174Y-87206143D01*
X70721234Y-85130204D01*
X70699560Y-85077878D01*
X70700194Y-85068212D01*
X70700500Y-85065889D01*
X70700500Y-84934106D01*
X70700499Y-84934105D01*
X70700366Y-84933610D01*
X70666392Y-84806814D01*
X70600500Y-84692686D01*
X70507314Y-84599500D01*
X70445641Y-84563893D01*
X70393190Y-84533610D01*
X70393181Y-84533606D01*
X70265894Y-84499500D01*
X70265892Y-84499500D01*
X70134108Y-84499500D01*
X70134106Y-84499500D01*
X70006818Y-84533606D01*
X70006809Y-84533610D01*
X69892685Y-84599500D01*
X69799500Y-84692685D01*
X69733610Y-84806809D01*
X69733606Y-84806818D01*
X69699500Y-84934105D01*
X69699500Y-85013034D01*
X69688788Y-85038893D01*
X69678292Y-85064890D01*
X69677962Y-85065029D01*
X69677826Y-85065360D01*
X69651932Y-85076085D01*
X69626161Y-85087031D01*
X69625832Y-85086896D01*
X69625500Y-85087034D01*
X69573644Y-85065826D01*
X69573418Y-85065604D01*
X69507314Y-84999500D01*
X69504421Y-84997829D01*
X69498644Y-84992155D01*
X69489204Y-84969930D01*
X69477132Y-84949017D01*
X69476550Y-84940136D01*
X69476503Y-84940024D01*
X69476537Y-84939938D01*
X69476500Y-84939363D01*
X69476500Y-83345182D01*
X69498174Y-83292856D01*
X71597174Y-81193856D01*
X71649500Y-81172182D01*
X71701826Y-81193856D01*
X71723500Y-81246182D01*
X71723500Y-84739363D01*
X71701826Y-84791689D01*
X71694552Y-84798068D01*
X71692690Y-84799496D01*
X71599500Y-84892685D01*
X71533610Y-85006809D01*
X71533606Y-85006818D01*
X71499500Y-85134105D01*
X71499500Y-85265894D01*
X71533606Y-85393181D01*
X71533610Y-85393190D01*
X71595389Y-85500194D01*
X71599500Y-85507314D01*
X71692686Y-85600500D01*
X71806814Y-85666392D01*
X71934105Y-85700499D01*
X71934106Y-85700500D01*
X71934108Y-85700500D01*
X72065894Y-85700500D01*
X72065894Y-85700499D01*
X72193186Y-85666392D01*
X72307314Y-85600500D01*
X72400500Y-85507314D01*
X72466392Y-85393186D01*
X72500499Y-85265894D01*
X72500500Y-85265894D01*
X72500500Y-85134106D01*
X72500499Y-85134105D01*
X72494190Y-85110561D01*
X72466392Y-85006814D01*
X72400500Y-84892686D01*
X72307314Y-84799500D01*
X72307311Y-84799498D01*
X72307309Y-84799496D01*
X72305448Y-84798068D01*
X72304856Y-84797043D01*
X72303884Y-84796071D01*
X72304144Y-84795810D01*
X72277132Y-84749017D01*
X72276500Y-84739363D01*
X72276500Y-81345182D01*
X72298174Y-81292856D01*
X85634404Y-67956626D01*
X85634405Y-67956625D01*
X85676500Y-67854999D01*
X85676500Y-67745001D01*
X85676500Y-61345182D01*
X85698174Y-61292856D01*
X86234405Y-60756625D01*
X86290770Y-60700260D01*
X86514565Y-60476463D01*
X86566890Y-60454790D01*
X86603890Y-60464704D01*
X86606814Y-60466392D01*
X86734105Y-60500499D01*
X86734106Y-60500500D01*
X86734108Y-60500500D01*
X86865894Y-60500500D01*
X86865894Y-60500499D01*
X86993186Y-60466392D01*
X87107314Y-60400500D01*
X87200500Y-60307314D01*
X87266392Y-60193186D01*
X87300499Y-60065894D01*
X87300500Y-60065894D01*
X87300500Y-59934106D01*
X87300499Y-59934105D01*
X87295238Y-59914472D01*
X87266392Y-59806814D01*
X87200500Y-59692686D01*
X87107314Y-59599500D01*
X86993190Y-59533610D01*
X86993181Y-59533606D01*
X86865894Y-59499500D01*
X86865892Y-59499500D01*
X86734108Y-59499500D01*
X86734106Y-59499500D01*
X86606818Y-59533606D01*
X86606809Y-59533610D01*
X86492685Y-59599500D01*
X86399500Y-59692685D01*
X86333608Y-59806812D01*
X86333607Y-59806816D01*
X86313648Y-59881300D01*
X86294496Y-59914472D01*
X85843375Y-60365595D01*
X85402826Y-60806144D01*
X85350500Y-60827818D01*
X85298174Y-60806144D01*
X85276500Y-60753818D01*
X85276500Y-60345182D01*
X85298174Y-60292856D01*
X86492856Y-59098174D01*
X86545182Y-59076500D01*
X88054998Y-59076500D01*
X88054999Y-59076500D01*
X88156625Y-59034405D01*
X89634405Y-57556625D01*
X89676500Y-57454999D01*
X89676500Y-57345001D01*
X89676500Y-54060637D01*
X89698174Y-54008311D01*
X89705454Y-54001927D01*
X89707308Y-54000503D01*
X89707314Y-54000500D01*
X89800500Y-53907314D01*
X89866392Y-53793186D01*
X89900499Y-53665894D01*
X89900500Y-53665894D01*
X89900500Y-53534106D01*
X89900499Y-53534105D01*
X89866393Y-53406818D01*
X89866392Y-53406814D01*
X89800500Y-53292686D01*
X89707314Y-53199500D01*
X89640897Y-53161154D01*
X89593190Y-53133610D01*
X89593181Y-53133606D01*
X89465894Y-53099500D01*
X89465892Y-53099500D01*
X89334108Y-53099500D01*
X89334106Y-53099500D01*
X89206818Y-53133606D01*
X89206809Y-53133610D01*
X89092685Y-53199500D01*
X88999500Y-53292685D01*
X88933610Y-53406809D01*
X88933606Y-53406818D01*
X88899500Y-53534105D01*
X88899500Y-53665894D01*
X88933606Y-53793181D01*
X88933610Y-53793190D01*
X88999500Y-53907314D01*
X89092685Y-54000499D01*
X89094546Y-54001927D01*
X89095137Y-54002951D01*
X89096116Y-54003930D01*
X89095853Y-54004192D01*
X89122866Y-54050975D01*
X89123500Y-54060637D01*
X89123500Y-57254818D01*
X89101826Y-57307144D01*
X87907144Y-58501826D01*
X87854818Y-58523500D01*
X86454999Y-58523500D01*
X86345001Y-58523500D01*
X86315236Y-58535829D01*
X86243375Y-58565594D01*
X86243375Y-58565595D01*
X84765596Y-60043374D01*
X84765594Y-60043375D01*
X84723500Y-60145001D01*
X84723500Y-61353818D01*
X84701826Y-61406144D01*
X84649500Y-61427818D01*
X84597174Y-61406144D01*
X83921234Y-60730204D01*
X83899560Y-60677878D01*
X83900194Y-60668212D01*
X83900500Y-60665889D01*
X83900500Y-60534106D01*
X83900499Y-60534105D01*
X83891494Y-60500499D01*
X83866392Y-60406814D01*
X83800500Y-60292686D01*
X83707314Y-60199500D01*
X83696369Y-60193181D01*
X83593190Y-60133610D01*
X83593181Y-60133606D01*
X83465894Y-60099500D01*
X83465892Y-60099500D01*
X83334108Y-60099500D01*
X83334106Y-60099500D01*
X83206818Y-60133606D01*
X83206809Y-60133610D01*
X83092685Y-60199500D01*
X82999500Y-60292685D01*
X82933610Y-60406809D01*
X82933606Y-60406818D01*
X82899500Y-60534105D01*
X82899500Y-60665894D01*
X82933606Y-60793181D01*
X82933607Y-60793184D01*
X82933608Y-60793186D01*
X82999500Y-60907314D01*
X83092686Y-61000500D01*
X83206814Y-61066392D01*
X83334105Y-61100499D01*
X83334106Y-61100500D01*
X83334108Y-61100500D01*
X83465889Y-61100500D01*
X83465892Y-61100500D01*
X83465894Y-61100499D01*
X83468212Y-61100194D01*
X83469354Y-61100500D01*
X83470743Y-61100500D01*
X83470743Y-61100871D01*
X83522921Y-61114848D01*
X83530204Y-61121234D01*
X84301826Y-61892856D01*
X84323500Y-61945182D01*
X84323500Y-66254817D01*
X84301826Y-66307143D01*
X80184277Y-70424691D01*
X80131951Y-70446365D01*
X80079625Y-70424691D01*
X80067865Y-70409365D01*
X80038435Y-70358391D01*
X80000500Y-70292686D01*
X79907314Y-70199500D01*
X79802950Y-70139245D01*
X79793190Y-70133610D01*
X79793181Y-70133606D01*
X79665894Y-70099500D01*
X79665892Y-70099500D01*
X79534108Y-70099500D01*
X79469500Y-70116811D01*
X79413347Y-70109418D01*
X79378869Y-70064484D01*
X79386262Y-70008331D01*
X79398017Y-69993012D01*
X80469795Y-68921233D01*
X80522120Y-68899560D01*
X80531783Y-68900194D01*
X80534106Y-68900500D01*
X80534108Y-68900500D01*
X80665894Y-68900500D01*
X80665894Y-68900499D01*
X80793186Y-68866392D01*
X80907314Y-68800500D01*
X81000500Y-68707314D01*
X81066392Y-68593186D01*
X81100499Y-68465894D01*
X81100500Y-68465894D01*
X81100500Y-68334106D01*
X81100499Y-68334105D01*
X81093274Y-68307142D01*
X81066392Y-68206814D01*
X81000500Y-68092686D01*
X80907314Y-67999500D01*
X80793190Y-67933610D01*
X80793181Y-67933606D01*
X80665894Y-67899500D01*
X80661085Y-67898867D01*
X80661476Y-67895894D01*
X80617855Y-67877826D01*
X80596181Y-67825500D01*
X80617855Y-67773174D01*
X81723499Y-66667530D01*
X82911593Y-65479435D01*
X82963918Y-65457762D01*
X82983071Y-65460284D01*
X83019910Y-65470154D01*
X83061650Y-65481339D01*
X83061651Y-65481340D01*
X83061653Y-65481340D01*
X83193439Y-65481340D01*
X83193439Y-65481339D01*
X83320731Y-65447232D01*
X83434859Y-65381340D01*
X83528045Y-65288154D01*
X83593937Y-65174026D01*
X83628044Y-65046734D01*
X83628045Y-65046734D01*
X83628045Y-64914946D01*
X83628044Y-64914945D01*
X83599069Y-64806809D01*
X83593937Y-64787654D01*
X83528045Y-64673526D01*
X83434859Y-64580340D01*
X83320735Y-64514450D01*
X83320726Y-64514446D01*
X83193439Y-64480340D01*
X83193437Y-64480340D01*
X83061653Y-64480340D01*
X83061651Y-64480340D01*
X82934363Y-64514446D01*
X82934354Y-64514450D01*
X82820230Y-64580340D01*
X82727045Y-64673525D01*
X82661155Y-64787649D01*
X82661151Y-64787658D01*
X82627045Y-64914945D01*
X82627045Y-64951273D01*
X82605371Y-65003599D01*
X77639648Y-69969322D01*
X77587322Y-69990996D01*
X77539847Y-69990996D01*
X77487521Y-69969322D01*
X77481142Y-69962048D01*
X77479713Y-69960186D01*
X77479711Y-69960184D01*
X77479710Y-69960182D01*
X77386524Y-69866996D01*
X77386523Y-69866995D01*
X77303629Y-69819135D01*
X77269151Y-69774202D01*
X77276545Y-69718049D01*
X77288300Y-69702728D01*
X81469795Y-65521233D01*
X81522120Y-65499560D01*
X81531783Y-65500194D01*
X81534106Y-65500500D01*
X81534108Y-65500500D01*
X81665894Y-65500500D01*
X81665894Y-65500499D01*
X81793186Y-65466392D01*
X81907314Y-65400500D01*
X82000500Y-65307314D01*
X82066392Y-65193186D01*
X82100499Y-65065894D01*
X82100500Y-65065894D01*
X82100500Y-64934106D01*
X82100499Y-64934105D01*
X82095365Y-64914946D01*
X82066392Y-64806814D01*
X82000500Y-64692686D01*
X81907314Y-64599500D01*
X81874128Y-64580340D01*
X81793190Y-64533610D01*
X81793181Y-64533606D01*
X81665894Y-64499500D01*
X81665892Y-64499500D01*
X81534108Y-64499500D01*
X81534106Y-64499500D01*
X81406818Y-64533606D01*
X81406809Y-64533610D01*
X81292685Y-64599500D01*
X81199500Y-64692685D01*
X81133610Y-64806809D01*
X81133606Y-64806818D01*
X81099500Y-64934105D01*
X81099500Y-65065896D01*
X81099806Y-65068222D01*
X81099500Y-65069363D01*
X81099500Y-65070742D01*
X81099131Y-65070742D01*
X81085145Y-65122928D01*
X81078765Y-65130203D01*
X76592573Y-69616395D01*
X76540247Y-69638069D01*
X76503249Y-69628155D01*
X76466539Y-69606961D01*
X76466534Y-69606959D01*
X76339247Y-69572853D01*
X76339245Y-69572853D01*
X76207461Y-69572853D01*
X76207459Y-69572853D01*
X76080171Y-69606959D01*
X76080162Y-69606963D01*
X75966038Y-69672853D01*
X75872853Y-69766038D01*
X75806963Y-69880162D01*
X75806959Y-69880171D01*
X75772853Y-70007458D01*
X75772853Y-70139247D01*
X75806959Y-70266534D01*
X75806963Y-70266543D01*
X75872853Y-70380667D01*
X75885856Y-70393670D01*
X75907530Y-70445996D01*
X75885856Y-70498322D01*
X75833530Y-70519996D01*
X74121350Y-70519996D01*
X74069024Y-70498322D01*
X74047350Y-70445996D01*
X74057263Y-70408997D01*
X74066392Y-70393186D01*
X74100499Y-70265894D01*
X74100500Y-70265894D01*
X74100500Y-70134106D01*
X74100499Y-70134105D01*
X74100366Y-70133610D01*
X74066392Y-70006814D01*
X74000500Y-69892686D01*
X73907314Y-69799500D01*
X73907311Y-69799498D01*
X73907309Y-69799496D01*
X73895597Y-69792734D01*
X73861119Y-69747801D01*
X73868513Y-69691648D01*
X73880272Y-69676324D01*
X73898244Y-69658353D01*
X73964136Y-69544225D01*
X73970834Y-69519226D01*
X74005311Y-69474294D01*
X74061463Y-69466900D01*
X74106397Y-69501378D01*
X74113790Y-69519226D01*
X74133606Y-69593181D01*
X74133607Y-69593184D01*
X74133608Y-69593186D01*
X74199500Y-69707314D01*
X74292686Y-69800500D01*
X74406814Y-69866392D01*
X74534105Y-69900499D01*
X74534106Y-69900500D01*
X74534108Y-69900500D01*
X74665894Y-69900500D01*
X74665894Y-69900499D01*
X74793186Y-69866392D01*
X74907314Y-69800500D01*
X75000500Y-69707314D01*
X75066392Y-69593186D01*
X75100499Y-69465894D01*
X75100500Y-69465894D01*
X75100500Y-69334107D01*
X75100194Y-69331784D01*
X75100500Y-69330641D01*
X75100500Y-69329258D01*
X75100871Y-69329258D01*
X75114849Y-69277076D01*
X75121226Y-69269803D01*
X75834406Y-68556625D01*
X75876500Y-68454998D01*
X75876500Y-68345001D01*
X75876500Y-64345182D01*
X75898174Y-64292856D01*
X76147656Y-64043374D01*
X76469796Y-63721233D01*
X76522121Y-63699560D01*
X76531784Y-63700194D01*
X76534107Y-63700500D01*
X76534108Y-63700500D01*
X76665894Y-63700500D01*
X76665894Y-63700499D01*
X76793186Y-63666392D01*
X76907314Y-63600500D01*
X77000500Y-63507314D01*
X77066392Y-63393186D01*
X77100499Y-63265894D01*
X77100500Y-63265894D01*
X77100500Y-63134106D01*
X77100499Y-63134105D01*
X77066393Y-63006818D01*
X77066392Y-63006814D01*
X77000500Y-62892686D01*
X76907314Y-62799500D01*
X76833051Y-62756624D01*
X76793190Y-62733610D01*
X76793181Y-62733606D01*
X76665894Y-62699500D01*
X76665892Y-62699500D01*
X76534108Y-62699500D01*
X76534106Y-62699500D01*
X76406818Y-62733606D01*
X76406809Y-62733610D01*
X76292685Y-62799500D01*
X76199500Y-62892685D01*
X76133610Y-63006809D01*
X76133606Y-63006818D01*
X76099500Y-63134105D01*
X76099500Y-63265894D01*
X76099806Y-63268219D01*
X76099500Y-63269360D01*
X76099500Y-63270742D01*
X76099130Y-63270742D01*
X76085146Y-63322926D01*
X76078765Y-63330202D01*
X75443375Y-63965595D01*
X75365596Y-64043374D01*
X75365594Y-64043375D01*
X75323500Y-64145001D01*
X75323500Y-68254816D01*
X75301826Y-68307142D01*
X75184276Y-68424691D01*
X75131950Y-68446365D01*
X75079624Y-68424691D01*
X75067864Y-68409365D01*
X75066392Y-68406816D01*
X75066392Y-68406814D01*
X75000500Y-68292686D01*
X74907314Y-68199500D01*
X74907311Y-68199498D01*
X74907309Y-68199496D01*
X74905448Y-68198068D01*
X74904856Y-68197043D01*
X74903884Y-68196071D01*
X74904144Y-68195810D01*
X74877132Y-68149017D01*
X74876500Y-68139363D01*
X74876500Y-64545001D01*
X74834405Y-64443375D01*
X73721234Y-63330204D01*
X73699560Y-63277878D01*
X73700194Y-63268212D01*
X73700500Y-63265889D01*
X73700500Y-63134106D01*
X73700499Y-63134105D01*
X73666393Y-63006818D01*
X73666392Y-63006814D01*
X73600500Y-62892686D01*
X73507314Y-62799500D01*
X73433051Y-62756624D01*
X73393190Y-62733610D01*
X73393181Y-62733606D01*
X73265894Y-62699500D01*
X73265892Y-62699500D01*
X73134108Y-62699500D01*
X73134106Y-62699500D01*
X73006818Y-62733606D01*
X73006809Y-62733610D01*
X72892685Y-62799500D01*
X72799500Y-62892685D01*
X72733610Y-63006809D01*
X72733606Y-63006818D01*
X72699500Y-63134105D01*
X72699500Y-63265894D01*
X72733606Y-63393181D01*
X72733610Y-63393190D01*
X72771092Y-63458110D01*
X72799500Y-63507314D01*
X72892686Y-63600500D01*
X73006814Y-63666392D01*
X73134105Y-63700499D01*
X73134106Y-63700500D01*
X73134108Y-63700500D01*
X73265889Y-63700500D01*
X73265892Y-63700500D01*
X73265894Y-63700499D01*
X73268212Y-63700194D01*
X73269354Y-63700500D01*
X73270743Y-63700500D01*
X73270743Y-63700871D01*
X73322921Y-63714848D01*
X73330204Y-63721234D01*
X74301826Y-64692856D01*
X74323500Y-64745182D01*
X74323500Y-68139363D01*
X74301826Y-68191689D01*
X74294552Y-68198068D01*
X74292690Y-68199496D01*
X74199500Y-68292685D01*
X74133610Y-68406809D01*
X74133606Y-68406818D01*
X74099500Y-68534105D01*
X74099500Y-68665894D01*
X74133606Y-68793181D01*
X74133610Y-68793190D01*
X74199500Y-68907314D01*
X74239860Y-68947674D01*
X74261534Y-69000000D01*
X74239860Y-69052326D01*
X74199500Y-69092685D01*
X74133610Y-69206809D01*
X74133607Y-69206817D01*
X74126909Y-69231813D01*
X74092430Y-69276746D01*
X74036277Y-69284137D01*
X73991344Y-69249658D01*
X73983953Y-69231813D01*
X73964136Y-69157853D01*
X73898244Y-69043725D01*
X73805058Y-68950539D01*
X73805055Y-68950537D01*
X73805053Y-68950535D01*
X73803192Y-68949107D01*
X73802600Y-68948082D01*
X73801628Y-68947110D01*
X73801888Y-68946849D01*
X73774876Y-68900056D01*
X73774244Y-68890402D01*
X73774244Y-67242745D01*
X73732149Y-67141119D01*
X70101466Y-63510436D01*
X70079792Y-63458110D01*
X70101466Y-63405784D01*
X70106040Y-63401773D01*
X70107311Y-63400501D01*
X70107314Y-63400500D01*
X70200500Y-63307314D01*
X70266392Y-63193186D01*
X70300499Y-63065894D01*
X70300500Y-63065894D01*
X70300500Y-62934106D01*
X70300499Y-62934105D01*
X70266393Y-62806818D01*
X70266392Y-62806814D01*
X70200500Y-62692686D01*
X70107314Y-62599500D01*
X69993190Y-62533610D01*
X69993181Y-62533606D01*
X69865894Y-62499500D01*
X69865892Y-62499500D01*
X69734108Y-62499500D01*
X69734106Y-62499500D01*
X69606818Y-62533606D01*
X69606809Y-62533610D01*
X69492685Y-62599500D01*
X69399500Y-62692685D01*
X69333610Y-62806809D01*
X69333606Y-62806818D01*
X69299500Y-62934105D01*
X69299500Y-63065894D01*
X69333606Y-63193181D01*
X69333610Y-63193190D01*
X69399500Y-63307314D01*
X69492685Y-63400499D01*
X69494546Y-63401927D01*
X69495137Y-63402951D01*
X69496116Y-63403930D01*
X69495853Y-63404192D01*
X69522866Y-63450975D01*
X69523500Y-63460637D01*
X69523500Y-63654998D01*
X69523499Y-63654998D01*
X69565594Y-63756624D01*
X73199570Y-67390600D01*
X73221244Y-67442926D01*
X73221244Y-68890402D01*
X73199570Y-68942728D01*
X73192296Y-68949107D01*
X73190434Y-68950535D01*
X73097243Y-69043725D01*
X73049384Y-69126618D01*
X73004451Y-69161096D01*
X72948298Y-69153702D01*
X72932973Y-69141943D01*
X67121234Y-63330204D01*
X67099560Y-63277878D01*
X67100194Y-63268212D01*
X67100500Y-63265889D01*
X67100500Y-63134106D01*
X67100499Y-63134105D01*
X67066393Y-63006818D01*
X67066392Y-63006814D01*
X67000500Y-62892686D01*
X66907314Y-62799500D01*
X66833051Y-62756624D01*
X66793190Y-62733610D01*
X66793181Y-62733606D01*
X66665894Y-62699500D01*
X66665892Y-62699500D01*
X66534108Y-62699500D01*
X66534106Y-62699500D01*
X66406818Y-62733606D01*
X66406809Y-62733610D01*
X66292685Y-62799500D01*
X66199500Y-62892685D01*
X66133610Y-63006809D01*
X66133606Y-63006818D01*
X66099500Y-63134105D01*
X66099500Y-63265894D01*
X66133606Y-63393181D01*
X66133610Y-63393190D01*
X66171092Y-63458110D01*
X66199500Y-63507314D01*
X66292686Y-63600500D01*
X66406814Y-63666392D01*
X66534105Y-63700499D01*
X66534106Y-63700500D01*
X66534108Y-63700500D01*
X66665889Y-63700500D01*
X66665892Y-63700500D01*
X66665894Y-63700499D01*
X66668212Y-63700194D01*
X66669354Y-63700500D01*
X66670743Y-63700500D01*
X66670743Y-63700871D01*
X66722921Y-63714848D01*
X66730204Y-63721234D01*
X73078765Y-70069795D01*
X73100439Y-70122121D01*
X73099807Y-70131774D01*
X73099500Y-70134107D01*
X73099500Y-70265894D01*
X73133606Y-70393181D01*
X73133608Y-70393186D01*
X73142736Y-70408996D01*
X73145257Y-70428149D01*
X73152650Y-70445996D01*
X73148823Y-70455233D01*
X73150129Y-70465148D01*
X73138368Y-70480475D01*
X73130976Y-70498322D01*
X73121738Y-70502148D01*
X73115651Y-70510082D01*
X73078650Y-70519996D01*
X72941678Y-70519996D01*
X72889352Y-70498322D01*
X72756624Y-70365594D01*
X72697093Y-70340935D01*
X72654999Y-70323500D01*
X72654998Y-70323500D01*
X69670637Y-70323500D01*
X69618311Y-70301826D01*
X69611932Y-70294552D01*
X69610503Y-70292690D01*
X69610501Y-70292688D01*
X69610500Y-70292686D01*
X69517314Y-70199500D01*
X69412950Y-70139245D01*
X69403190Y-70133610D01*
X69403181Y-70133606D01*
X69275894Y-70099500D01*
X69275892Y-70099500D01*
X69144108Y-70099500D01*
X69144106Y-70099500D01*
X69016818Y-70133606D01*
X69016809Y-70133610D01*
X68902685Y-70199500D01*
X68809500Y-70292685D01*
X68743610Y-70406809D01*
X68743606Y-70406818D01*
X68709500Y-70534105D01*
X68709500Y-70665894D01*
X68743606Y-70793181D01*
X68743607Y-70793184D01*
X68743608Y-70793186D01*
X68809500Y-70907314D01*
X68902686Y-71000500D01*
X69016814Y-71066392D01*
X69144105Y-71100499D01*
X69144106Y-71100500D01*
X69144108Y-71100500D01*
X69275894Y-71100500D01*
X69275894Y-71100499D01*
X69403186Y-71066392D01*
X69517314Y-71000500D01*
X69610500Y-70907314D01*
X69610503Y-70907309D01*
X69611932Y-70905448D01*
X69612956Y-70904856D01*
X69613929Y-70903884D01*
X69614189Y-70904144D01*
X69660983Y-70877132D01*
X69670637Y-70876500D01*
X72454818Y-70876500D01*
X72507144Y-70898174D01*
X72562091Y-70953121D01*
X72639871Y-71030901D01*
X72741497Y-71072996D01*
X78258502Y-71072996D01*
X78258503Y-71072996D01*
X78360129Y-71030901D01*
X78993007Y-70398022D01*
X79045332Y-70376349D01*
X79097658Y-70398023D01*
X79119332Y-70450349D01*
X79116811Y-70469501D01*
X79099500Y-70534108D01*
X79099500Y-70665896D01*
X79099806Y-70668222D01*
X79099500Y-70669363D01*
X79099500Y-70670742D01*
X79099131Y-70670742D01*
X79085145Y-70722928D01*
X79078765Y-70730203D01*
X76307144Y-73501826D01*
X76254818Y-73523500D01*
X68745182Y-73523500D01*
X68692856Y-73501826D01*
X65898174Y-70707144D01*
X65876500Y-70654818D01*
X65876500Y-58945182D01*
X65898174Y-58892856D01*
X68292856Y-56498174D01*
X68345182Y-56476500D01*
X70939363Y-56476500D01*
X70991689Y-56498174D01*
X70998068Y-56505448D01*
X70999496Y-56507309D01*
X70999498Y-56507311D01*
X70999500Y-56507314D01*
X71092686Y-56600500D01*
X71206814Y-56666392D01*
X71334105Y-56700499D01*
X71334106Y-56700500D01*
X71334108Y-56700500D01*
X71465894Y-56700500D01*
X71465894Y-56700499D01*
X71593186Y-56666392D01*
X71707314Y-56600500D01*
X71800500Y-56507314D01*
X71866392Y-56393186D01*
X71900499Y-56265894D01*
X71900500Y-56265894D01*
X71900500Y-56134106D01*
X71900499Y-56134105D01*
X71892207Y-56103160D01*
X71866392Y-56006814D01*
X71800500Y-55892686D01*
X71707314Y-55799500D01*
X71696369Y-55793181D01*
X71593190Y-55733610D01*
X71593181Y-55733606D01*
X71465894Y-55699500D01*
X71465892Y-55699500D01*
X71334108Y-55699500D01*
X71334106Y-55699500D01*
X71206818Y-55733606D01*
X71206809Y-55733610D01*
X71092685Y-55799500D01*
X70999496Y-55892690D01*
X70998068Y-55894552D01*
X70997043Y-55895143D01*
X70996071Y-55896116D01*
X70995810Y-55895855D01*
X70949017Y-55922868D01*
X70939363Y-55923500D01*
X68719327Y-55923500D01*
X68667001Y-55901826D01*
X68645327Y-55849500D01*
X68655241Y-55812500D01*
X68666392Y-55793186D01*
X68700499Y-55665894D01*
X68700500Y-55665894D01*
X68700500Y-55534106D01*
X68700499Y-55534105D01*
X68686870Y-55483242D01*
X68666392Y-55406814D01*
X68600500Y-55292686D01*
X68507314Y-55199500D01*
X68476499Y-55181709D01*
X68393190Y-55133610D01*
X68393181Y-55133606D01*
X68265894Y-55099500D01*
X68265892Y-55099500D01*
X68134108Y-55099500D01*
X68134106Y-55099500D01*
X68006818Y-55133606D01*
X68006809Y-55133610D01*
X67892685Y-55199500D01*
X67799496Y-55292690D01*
X67798068Y-55294552D01*
X67797043Y-55295143D01*
X67796071Y-55296116D01*
X67795810Y-55295855D01*
X67749017Y-55322868D01*
X67739363Y-55323500D01*
X66054999Y-55323500D01*
X65945001Y-55323500D01*
X65915236Y-55335829D01*
X65843375Y-55365594D01*
X65843374Y-55365596D01*
X64365596Y-56843374D01*
X64365594Y-56843375D01*
X64323500Y-56945001D01*
X64323500Y-87508998D01*
X64323499Y-87508998D01*
X64365594Y-87610624D01*
X64365595Y-87610625D01*
X76311595Y-99556625D01*
X76389375Y-99634405D01*
X76491001Y-99676500D01*
X91254998Y-99676500D01*
X91254999Y-99676500D01*
X91356625Y-99634405D01*
X92434406Y-98556625D01*
X92476500Y-98454998D01*
X92476500Y-98345001D01*
X92476500Y-95945001D01*
X92434405Y-95843375D01*
X92356625Y-95765595D01*
X87152565Y-90561535D01*
X89549500Y-90561535D01*
X89549500Y-90768464D01*
X89589868Y-90971413D01*
X89589870Y-90971420D01*
X89669059Y-91162598D01*
X89784023Y-91334655D01*
X89930345Y-91480977D01*
X90102402Y-91595941D01*
X90293580Y-91675130D01*
X90496535Y-91715500D01*
X90496536Y-91715500D01*
X90703464Y-91715500D01*
X90703465Y-91715500D01*
X90906420Y-91675130D01*
X91097598Y-91595941D01*
X91269655Y-91480977D01*
X91415977Y-91334655D01*
X91530941Y-91162598D01*
X91610130Y-90971420D01*
X91650500Y-90768465D01*
X91650500Y-90561535D01*
X91610130Y-90358580D01*
X91530941Y-90167402D01*
X91415977Y-89995345D01*
X91269655Y-89849023D01*
X91097598Y-89734059D01*
X90906420Y-89654870D01*
X90906413Y-89654868D01*
X90753516Y-89624455D01*
X90703465Y-89614500D01*
X90496535Y-89614500D01*
X90456385Y-89622486D01*
X90293586Y-89654868D01*
X90293579Y-89654870D01*
X90102401Y-89734059D01*
X89930345Y-89849022D01*
X89930344Y-89849024D01*
X89784024Y-89995344D01*
X89784022Y-89995345D01*
X89669059Y-90167401D01*
X89589870Y-90358579D01*
X89589868Y-90358586D01*
X89549500Y-90561535D01*
X87152565Y-90561535D01*
X86325135Y-89734105D01*
X87699500Y-89734105D01*
X87699500Y-89865894D01*
X87733606Y-89993181D01*
X87733610Y-89993190D01*
X87740687Y-90005447D01*
X87799500Y-90107314D01*
X87892686Y-90200500D01*
X88006814Y-90266392D01*
X88134105Y-90300499D01*
X88134106Y-90300500D01*
X88134108Y-90300500D01*
X88265894Y-90300500D01*
X88265894Y-90300499D01*
X88393186Y-90266392D01*
X88507314Y-90200500D01*
X88600500Y-90107314D01*
X88666392Y-89993186D01*
X88700499Y-89865894D01*
X88700500Y-89865894D01*
X88700500Y-89734106D01*
X88700499Y-89734105D01*
X88687467Y-89685470D01*
X88666392Y-89606814D01*
X88600500Y-89492686D01*
X88523774Y-89415960D01*
X88502100Y-89363634D01*
X88502100Y-87255253D01*
X89549500Y-87255253D01*
X89549500Y-88994746D01*
X89561133Y-89053232D01*
X89587610Y-89092856D01*
X89605448Y-89119552D01*
X89649560Y-89149027D01*
X89671767Y-89163866D01*
X89671768Y-89163866D01*
X89671769Y-89163867D01*
X89730252Y-89175500D01*
X89730254Y-89175500D01*
X91469746Y-89175500D01*
X91469748Y-89175500D01*
X91528231Y-89163867D01*
X91594552Y-89119552D01*
X91638867Y-89053231D01*
X91650500Y-88994748D01*
X91650500Y-87255252D01*
X91638867Y-87196769D01*
X91594552Y-87130448D01*
X91572343Y-87115608D01*
X91528232Y-87086133D01*
X91528233Y-87086133D01*
X91498989Y-87080316D01*
X91469748Y-87074500D01*
X89730252Y-87074500D01*
X89701010Y-87080316D01*
X89671767Y-87086133D01*
X89605449Y-87130447D01*
X89605447Y-87130449D01*
X89561133Y-87196767D01*
X89561133Y-87196769D01*
X89551863Y-87243375D01*
X89549500Y-87255253D01*
X88502100Y-87255253D01*
X88502100Y-86755785D01*
X88523773Y-86703460D01*
X91938059Y-83289173D01*
X91990385Y-83267500D01*
X92098894Y-83267500D01*
X92098894Y-83267499D01*
X92226186Y-83233392D01*
X92340314Y-83167500D01*
X92371574Y-83136240D01*
X92423900Y-83114566D01*
X92476226Y-83136240D01*
X92497900Y-83188566D01*
X92497900Y-92823900D01*
X92476226Y-92876226D01*
X92423900Y-92897900D01*
X91836366Y-92897900D01*
X91784040Y-92876226D01*
X91707314Y-92799500D01*
X91593190Y-92733610D01*
X91593181Y-92733606D01*
X91465894Y-92699500D01*
X91465892Y-92699500D01*
X91334108Y-92699500D01*
X91334106Y-92699500D01*
X91206818Y-92733606D01*
X91206809Y-92733610D01*
X91092685Y-92799500D01*
X90999500Y-92892685D01*
X90933610Y-93006809D01*
X90933606Y-93006818D01*
X90899500Y-93134105D01*
X90899500Y-93265894D01*
X90933606Y-93393181D01*
X90933610Y-93393190D01*
X90961641Y-93441740D01*
X90999500Y-93507314D01*
X91092686Y-93600500D01*
X91206814Y-93666392D01*
X91334105Y-93700499D01*
X91334106Y-93700500D01*
X91334108Y-93700500D01*
X91465894Y-93700500D01*
X91465894Y-93700499D01*
X91593186Y-93666392D01*
X91707314Y-93600500D01*
X91784040Y-93523774D01*
X91836366Y-93502100D01*
X92839771Y-93502100D01*
X92839772Y-93502100D01*
X92916606Y-93481513D01*
X92985494Y-93441740D01*
X93041740Y-93385494D01*
X93081513Y-93316606D01*
X93102100Y-93239772D01*
X93102100Y-82732035D01*
X94399500Y-82732035D01*
X94399500Y-84267964D01*
X94405625Y-84324932D01*
X94405626Y-84324937D01*
X94453685Y-84453791D01*
X94453686Y-84453792D01*
X94453687Y-84453793D01*
X94536107Y-84563893D01*
X94646207Y-84646313D01*
X94646208Y-84646314D01*
X94752219Y-84685853D01*
X94775067Y-84694375D01*
X94826504Y-84699905D01*
X94832035Y-84700500D01*
X94832036Y-84700500D01*
X98167965Y-84700500D01*
X98173005Y-84699957D01*
X98224933Y-84694375D01*
X98310839Y-84662333D01*
X98353791Y-84646314D01*
X98353791Y-84646313D01*
X98353793Y-84646313D01*
X98463893Y-84563893D01*
X98546313Y-84453793D01*
X98594375Y-84324933D01*
X98600500Y-84267964D01*
X98600500Y-82732036D01*
X98594375Y-82675067D01*
X98582554Y-82643374D01*
X98546314Y-82546208D01*
X98546313Y-82546207D01*
X98463893Y-82436107D01*
X98353793Y-82353687D01*
X98353792Y-82353686D01*
X98353791Y-82353685D01*
X98224937Y-82305626D01*
X98224934Y-82305625D01*
X98224933Y-82305625D01*
X98196448Y-82302562D01*
X98167965Y-82299500D01*
X98167964Y-82299500D01*
X94832036Y-82299500D01*
X94832035Y-82299500D01*
X94775067Y-82305625D01*
X94775062Y-82305626D01*
X94646208Y-82353685D01*
X94646207Y-82353686D01*
X94536107Y-82436107D01*
X94453686Y-82546207D01*
X94453685Y-82546208D01*
X94405626Y-82675062D01*
X94405625Y-82675067D01*
X94399500Y-82732035D01*
X93102100Y-82732035D01*
X93102100Y-79905518D01*
X94399500Y-79905518D01*
X94399500Y-80094481D01*
X94429059Y-80281115D01*
X94429062Y-80281128D01*
X94487449Y-80460824D01*
X94487452Y-80460831D01*
X94487453Y-80460832D01*
X94573240Y-80629199D01*
X94684310Y-80782073D01*
X94817927Y-80915690D01*
X94970801Y-81026760D01*
X95139168Y-81112547D01*
X95139171Y-81112547D01*
X95139175Y-81112550D01*
X95318871Y-81170937D01*
X95318877Y-81170938D01*
X95318882Y-81170940D01*
X95443306Y-81190646D01*
X95505518Y-81200500D01*
X95505519Y-81200500D01*
X97494482Y-81200500D01*
X97541140Y-81193110D01*
X97681118Y-81170940D01*
X97681125Y-81170937D01*
X97681128Y-81170937D01*
X97860824Y-81112550D01*
X97860826Y-81112548D01*
X97860832Y-81112547D01*
X98029199Y-81026760D01*
X98182073Y-80915690D01*
X98315690Y-80782073D01*
X98426760Y-80629199D01*
X98512547Y-80460832D01*
X98570940Y-80281118D01*
X98600500Y-80094481D01*
X98600500Y-79905519D01*
X98570940Y-79718882D01*
X98570938Y-79718877D01*
X98570937Y-79718871D01*
X98512550Y-79539175D01*
X98512547Y-79539171D01*
X98512547Y-79539168D01*
X98426760Y-79370801D01*
X98315690Y-79217927D01*
X98182073Y-79084310D01*
X98182070Y-79084307D01*
X98182068Y-79084306D01*
X98029198Y-78973239D01*
X97860824Y-78887449D01*
X97681128Y-78829062D01*
X97681115Y-78829059D01*
X97494482Y-78799500D01*
X97494481Y-78799500D01*
X95505519Y-78799500D01*
X95505518Y-78799500D01*
X95318884Y-78829059D01*
X95318871Y-78829062D01*
X95139175Y-78887449D01*
X94970801Y-78973239D01*
X94817931Y-79084306D01*
X94684306Y-79217931D01*
X94573239Y-79370801D01*
X94487449Y-79539175D01*
X94429062Y-79718871D01*
X94429059Y-79718884D01*
X94399500Y-79905518D01*
X93102100Y-79905518D01*
X93102100Y-78160228D01*
X93081513Y-78083394D01*
X93081513Y-78083393D01*
X93081512Y-78083390D01*
X93061626Y-78048949D01*
X93041740Y-78014506D01*
X92522174Y-77494940D01*
X92500500Y-77442614D01*
X92500500Y-77334106D01*
X92500499Y-77334105D01*
X92466393Y-77206818D01*
X92466392Y-77206814D01*
X92400500Y-77092686D01*
X92307314Y-76999500D01*
X92193190Y-76933610D01*
X92193181Y-76933606D01*
X92065894Y-76899500D01*
X92065892Y-76899500D01*
X91934108Y-76899500D01*
X91934106Y-76899500D01*
X91806818Y-76933606D01*
X91806809Y-76933610D01*
X91692685Y-76999500D01*
X91599500Y-77092685D01*
X91533610Y-77206809D01*
X91533606Y-77206818D01*
X91499500Y-77334105D01*
X91499500Y-77465894D01*
X91533606Y-77593181D01*
X91533607Y-77593184D01*
X91533608Y-77593186D01*
X91599500Y-77707314D01*
X91692686Y-77800500D01*
X91806814Y-77866392D01*
X91934105Y-77900499D01*
X91934106Y-77900500D01*
X92042614Y-77900500D01*
X92094940Y-77922174D01*
X92476226Y-78303460D01*
X92497900Y-78355786D01*
X92497900Y-82345434D01*
X92476226Y-82397760D01*
X92423900Y-82419434D01*
X92371574Y-82397760D01*
X92340314Y-82366500D01*
X92226190Y-82300610D01*
X92226181Y-82300606D01*
X92098894Y-82266500D01*
X92098892Y-82266500D01*
X91967108Y-82266500D01*
X91967106Y-82266500D01*
X91839818Y-82300606D01*
X91839809Y-82300610D01*
X91725685Y-82366500D01*
X91632500Y-82459685D01*
X91566610Y-82573809D01*
X91566606Y-82573818D01*
X91532500Y-82701105D01*
X91532500Y-82809613D01*
X91510826Y-82861939D01*
X87958259Y-86414507D01*
X87958258Y-86414509D01*
X87918487Y-86483390D01*
X87918487Y-86483394D01*
X87897900Y-86560229D01*
X87897900Y-89363634D01*
X87876226Y-89415960D01*
X87799500Y-89492685D01*
X87733610Y-89606809D01*
X87733606Y-89606818D01*
X87699500Y-89734105D01*
X86325135Y-89734105D01*
X80248174Y-83657144D01*
X80226500Y-83604818D01*
X80226500Y-78334105D01*
X81899500Y-78334105D01*
X81899500Y-78465894D01*
X81933606Y-78593181D01*
X81933607Y-78593184D01*
X81933608Y-78593186D01*
X81999500Y-78707314D01*
X82092686Y-78800500D01*
X82206814Y-78866392D01*
X82334105Y-78900499D01*
X82334106Y-78900500D01*
X82334108Y-78900500D01*
X82465894Y-78900500D01*
X82465894Y-78900499D01*
X82593186Y-78866392D01*
X82707314Y-78800500D01*
X82800500Y-78707314D01*
X82866392Y-78593186D01*
X82900499Y-78465894D01*
X82900500Y-78465894D01*
X82900500Y-78334106D01*
X82900194Y-78331783D01*
X82900500Y-78330640D01*
X82900500Y-78329257D01*
X82900871Y-78329257D01*
X82914849Y-78277075D01*
X82921226Y-78269802D01*
X90634405Y-70556625D01*
X90676500Y-70454999D01*
X90676500Y-70454998D01*
X90677922Y-70447850D01*
X90681501Y-70448562D01*
X90698174Y-70408311D01*
X90705454Y-70401927D01*
X90707308Y-70400503D01*
X90707314Y-70400500D01*
X90800500Y-70307314D01*
X90866392Y-70193186D01*
X90900499Y-70065894D01*
X90900500Y-70065894D01*
X90900500Y-69934106D01*
X90900499Y-69934105D01*
X90891494Y-69900499D01*
X90866392Y-69806814D01*
X90800500Y-69692686D01*
X90707314Y-69599500D01*
X90661160Y-69572853D01*
X90593190Y-69533610D01*
X90593181Y-69533606D01*
X90465894Y-69499500D01*
X90465892Y-69499500D01*
X90334108Y-69499500D01*
X90334106Y-69499500D01*
X90206818Y-69533606D01*
X90206809Y-69533610D01*
X90092685Y-69599500D01*
X89999500Y-69692685D01*
X89933610Y-69806809D01*
X89933606Y-69806818D01*
X89899500Y-69934105D01*
X89899500Y-70065894D01*
X89933606Y-70193181D01*
X89933610Y-70193190D01*
X89999501Y-70307316D01*
X90002453Y-70311163D01*
X90000866Y-70312380D01*
X90019925Y-70358391D01*
X89998251Y-70410717D01*
X82530203Y-77878765D01*
X82477877Y-77900439D01*
X82468222Y-77899806D01*
X82465897Y-77899500D01*
X82465892Y-77899500D01*
X82334108Y-77899500D01*
X82334106Y-77899500D01*
X82206818Y-77933606D01*
X82206809Y-77933610D01*
X82092685Y-77999500D01*
X81999500Y-78092685D01*
X81933610Y-78206809D01*
X81933606Y-78206818D01*
X81899500Y-78334105D01*
X80226500Y-78334105D01*
X80226500Y-76547205D01*
X80248174Y-76494879D01*
X80300500Y-76473205D01*
X80319653Y-76475727D01*
X80412105Y-76500499D01*
X80412106Y-76500500D01*
X80412108Y-76500500D01*
X80543894Y-76500500D01*
X80543894Y-76500499D01*
X80671186Y-76466392D01*
X80785314Y-76400500D01*
X80878500Y-76307314D01*
X80944392Y-76193186D01*
X80978499Y-76065894D01*
X80978500Y-76065894D01*
X80978500Y-75934106D01*
X80963865Y-75879491D01*
X80971257Y-75823338D01*
X80983013Y-75808015D01*
X94034405Y-62756625D01*
X94076500Y-62654999D01*
X94076500Y-62545001D01*
X94076500Y-53874036D01*
X94399500Y-53874036D01*
X94399500Y-54125963D01*
X94438909Y-54374782D01*
X94438912Y-54374795D01*
X94516756Y-54614373D01*
X94631129Y-54838845D01*
X94779203Y-55042651D01*
X94779207Y-55042656D01*
X94957344Y-55220793D01*
X94957347Y-55220795D01*
X94957348Y-55220796D01*
X95161154Y-55368870D01*
X95235624Y-55406814D01*
X95385621Y-55483241D01*
X95385623Y-55483241D01*
X95385626Y-55483243D01*
X95625204Y-55561087D01*
X95625210Y-55561088D01*
X95625215Y-55561090D01*
X95749626Y-55580795D01*
X95874036Y-55600500D01*
X95874038Y-55600500D01*
X96125964Y-55600500D01*
X96225491Y-55584736D01*
X96374785Y-55561090D01*
X96374792Y-55561087D01*
X96374795Y-55561087D01*
X96614373Y-55483243D01*
X96614373Y-55483242D01*
X96614379Y-55483241D01*
X96838845Y-55368870D01*
X97042656Y-55220793D01*
X97220793Y-55042656D01*
X97368870Y-54838845D01*
X97483241Y-54614379D01*
X97561090Y-54374785D01*
X97600500Y-54125962D01*
X97600500Y-53874038D01*
X97587693Y-53793181D01*
X97567533Y-53665894D01*
X97561090Y-53625215D01*
X97561088Y-53625210D01*
X97561087Y-53625204D01*
X97483243Y-53385626D01*
X97483241Y-53385623D01*
X97483241Y-53385621D01*
X97388408Y-53199500D01*
X97368870Y-53161154D01*
X97220796Y-52957348D01*
X97220795Y-52957347D01*
X97220793Y-52957344D01*
X97042656Y-52779207D01*
X97042653Y-52779204D01*
X97042651Y-52779203D01*
X96838845Y-52631129D01*
X96614373Y-52516756D01*
X96374795Y-52438912D01*
X96374782Y-52438909D01*
X96125964Y-52399500D01*
X96125962Y-52399500D01*
X95874038Y-52399500D01*
X95874036Y-52399500D01*
X95625217Y-52438909D01*
X95625204Y-52438912D01*
X95385626Y-52516756D01*
X95161154Y-52631129D01*
X94957348Y-52779203D01*
X94779203Y-52957348D01*
X94631129Y-53161154D01*
X94516756Y-53385626D01*
X94438912Y-53625204D01*
X94438909Y-53625217D01*
X94399500Y-53874036D01*
X94076500Y-53874036D01*
X94076500Y-51745001D01*
X94064170Y-51715236D01*
X94034406Y-51643375D01*
X92956625Y-50565595D01*
X92956624Y-50565594D01*
X92897093Y-50540935D01*
X92854999Y-50523500D01*
X89854999Y-50523500D01*
X60054998Y-50523500D01*
X59945001Y-50523500D01*
X59915236Y-50535829D01*
X59843375Y-50565594D01*
X59843374Y-50565596D01*
X57965596Y-52443374D01*
X57965594Y-52443375D01*
X57923500Y-52545001D01*
X57923500Y-55139363D01*
X57901826Y-55191689D01*
X57894552Y-55198068D01*
X57892690Y-55199496D01*
X57799500Y-55292685D01*
X57733610Y-55406809D01*
X57733606Y-55406818D01*
X57699500Y-55534105D01*
X54457834Y-55534105D01*
X54483568Y-55525743D01*
X54614379Y-55483241D01*
X54838845Y-55368870D01*
X55042656Y-55220793D01*
X55220793Y-55042656D01*
X55368870Y-54838845D01*
X55483241Y-54614379D01*
X55561090Y-54374785D01*
X55600500Y-54125962D01*
X55600500Y-53874038D01*
X55587693Y-53793181D01*
X55567533Y-53665894D01*
X55561090Y-53625215D01*
X55561088Y-53625210D01*
X55561087Y-53625204D01*
X55483243Y-53385626D01*
X55483241Y-53385623D01*
X55483241Y-53385621D01*
X55388408Y-53199500D01*
X55368870Y-53161154D01*
X55220796Y-52957348D01*
X55220795Y-52957347D01*
X55220793Y-52957344D01*
X55042656Y-52779207D01*
X55042653Y-52779204D01*
X55042651Y-52779203D01*
X54838845Y-52631129D01*
X54614373Y-52516756D01*
X54374795Y-52438912D01*
X54374782Y-52438909D01*
X54125964Y-52399500D01*
X54125962Y-52399500D01*
X53874038Y-52399500D01*
X53874036Y-52399500D01*
X53625217Y-52438909D01*
X53625204Y-52438912D01*
X53385626Y-52516756D01*
X53161154Y-52631129D01*
X52957348Y-52779203D01*
X52779203Y-52957348D01*
X52631129Y-53161154D01*
X52516756Y-53385626D01*
X52438912Y-53625204D01*
X52438909Y-53625217D01*
X52399500Y-53874036D01*
X50300500Y-53874036D01*
X50300500Y-50374500D01*
X50322174Y-50322174D01*
X50374500Y-50300500D01*
X99625500Y-50300500D01*
X99677826Y-50322174D01*
G37*
G04 #@! TD.AperFunction*
M02*
