M48
; DRILL file {KiCad 9.0.4} date 2026-05-30T13:30:46-0400
; FORMAT={-:-/ absolute / metric / decimal}
; #@! TF.CreationDate,2026-05-30T13:30:46-04:00
; #@! TF.GenerationSoftware,Kicad,Pcbnew,9.0.4
; #@! TF.FileFunction,Plated,1,4,PTH
FMAT,2
METRIC
; #@! TA.AperFunction,Plated,PTH,ViaDrill
T1C0.300
; #@! TA.AperFunction,Plated,PTH,ComponentDrill
T2C0.600
; #@! TA.AperFunction,Plated,PTH,ComponentDrill
T3C1.000
; #@! TA.AperFunction,Plated,PTH,ComponentDrill
T4C1.400
%
G90
G05
T1
X58.2Y-55.6
X62.8Y-52.8
X66.6Y-63.2
X68.2Y-55.6
X68.2Y-85.2
X69.2Y-68.8
X69.2Y-85.4
X69.21Y-70.6
X69.8Y-63.0
X70.2Y-85.0
X71.4Y-56.2
X71.4Y-68.8
X72.0Y-85.2
X73.2Y-63.2
X73.2Y-85.2
X73.487Y-101.475
X73.498Y-69.351
X73.6Y-70.2
X74.0Y-85.4
X74.6Y-68.6
X74.6Y-69.4
X74.672Y-85.0
X76.273Y-70.073
X76.4Y-93.0
X76.6Y-63.2
X76.6Y-88.0
X76.8Y-66.4
X77.079Y-70.267
X79.6Y-70.6
X79.95Y-75.05
X80.478Y-76.0
X80.6Y-68.4
X81.6Y-65.0
X82.4Y-78.4
X83.0Y-71.6
X83.128Y-64.981
X83.4Y-60.6
X85.8Y-69.2
X86.8Y-60.0
X88.2Y-89.8
X88.6Y-96.4
X89.4Y-53.6
X90.4Y-70.0
X90.6Y-96.0
X91.4Y-93.2
X92.0Y-77.4
X92.033Y-82.767
T3
X64.06Y-52.8
X66.6Y-52.8
X69.14Y-52.8
X70.4Y-88.46
X70.4Y-91.0
X71.68Y-52.8
X90.6Y-88.125
X90.6Y-90.665
T4
X96.5Y-76.5
X96.5Y-80.0
X96.5Y-83.5
T2
G00X52.09Y-75.28
M15
G01X51.49Y-75.28
M16
G05
G00X52.09Y-83.92
M15
G01X51.49Y-83.92
M16
G05
G00X56.52Y-75.28
M15
G01X55.42Y-75.28
M16
G05
G00X56.52Y-83.92
M15
G01X55.42Y-83.92
M16
G05
M30
