G04 #@! TF.GenerationSoftware,KiCad,Pcbnew,9.0.4*
G04 #@! TF.CreationDate,2026-05-30T13:30:12-04:00*
G04 #@! TF.ProjectId,canarynode,63616e61-7279-46e6-9f64-652e6b696361,rev?*
G04 #@! TF.SameCoordinates,Original*
G04 #@! TF.FileFunction,Soldermask,Top*
G04 #@! TF.FilePolarity,Negative*
%FSLAX46Y46*%
G04 Gerber Fmt 4.6, Leading zero omitted, Abs format (unit mm)*
G04 Created by KiCad (PCBNEW 9.0.4) date 2026-05-30 13:30:12*
%MOMM*%
%LPD*%
G01*
G04 APERTURE LIST*
G04 Aperture macros list*
%AMRoundRect*
0 Rectangle with rounded corners*
0 $1 Rounding radius*
0 $2 $3 $4 $5 $6 $7 $8 $9 X,Y pos of 4 corners*
0 Add a 4 corners polygon primitive as box body*
4,1,4,$2,$3,$4,$5,$6,$7,$8,$9,$2,$3,0*
0 Add four circle primitives for the rounded corners*
1,1,$1+$1,$2,$3*
1,1,$1+$1,$4,$5*
1,1,$1+$1,$6,$7*
1,1,$1+$1,$8,$9*
0 Add four rect primitives between the rounded corners*
20,1,$1+$1,$2,$3,$4,$5,0*
20,1,$1+$1,$4,$5,$6,$7,0*
20,1,$1+$1,$6,$7,$8,$9,0*
20,1,$1+$1,$8,$9,$2,$3,0*%
G04 Aperture macros list end*
%ADD10RoundRect,0.135000X-0.135000X-0.185000X0.135000X-0.185000X0.135000X0.185000X-0.135000X0.185000X0*%
%ADD11RoundRect,0.093750X0.093750X-0.156250X0.093750X0.156250X-0.093750X0.156250X-0.093750X-0.156250X0*%
%ADD12RoundRect,0.075000X0.075000X-0.250000X0.075000X0.250000X-0.075000X0.250000X-0.075000X-0.250000X0*%
%ADD13R,0.482600X0.254000*%
%ADD14R,0.254000X0.482600*%
%ADD15RoundRect,0.135000X0.185000X-0.135000X0.185000X0.135000X-0.185000X0.135000X-0.185000X-0.135000X0*%
%ADD16RoundRect,0.225000X0.250000X-0.225000X0.250000X0.225000X-0.250000X0.225000X-0.250000X-0.225000X0*%
%ADD17RoundRect,0.225000X-0.250000X0.225000X-0.250000X-0.225000X0.250000X-0.225000X0.250000X0.225000X0*%
%ADD18RoundRect,0.140000X-0.170000X0.140000X-0.170000X-0.140000X0.170000X-0.140000X0.170000X0.140000X0*%
%ADD19RoundRect,0.135000X0.135000X0.185000X-0.135000X0.185000X-0.135000X-0.185000X0.135000X-0.185000X0*%
%ADD20R,1.700000X1.700000*%
%ADD21C,1.700000*%
%ADD22RoundRect,0.250000X-0.400000X0.525000X-0.400000X-0.525000X0.400000X-0.525000X0.400000X0.525000X0*%
%ADD23RoundRect,0.100000X-0.100000X0.130000X-0.100000X-0.130000X0.100000X-0.130000X0.100000X0.130000X0*%
%ADD24RoundRect,0.140000X0.170000X-0.140000X0.170000X0.140000X-0.170000X0.140000X-0.170000X-0.140000X0*%
%ADD25R,0.350000X0.500000*%
%ADD26C,2.700000*%
%ADD27RoundRect,0.100000X-0.712500X-0.100000X0.712500X-0.100000X0.712500X0.100000X-0.712500X0.100000X0*%
%ADD28R,2.895600X0.965200*%
%ADD29R,1.168400X0.533400*%
%ADD30RoundRect,0.140000X0.140000X0.170000X-0.140000X0.170000X-0.140000X-0.170000X0.140000X-0.170000X0*%
%ADD31R,2.400000X0.740000*%
%ADD32RoundRect,0.250000X0.400000X-0.525000X0.400000X0.525000X-0.400000X0.525000X-0.400000X-0.525000X0*%
%ADD33RoundRect,0.218750X-0.218750X-0.256250X0.218750X-0.256250X0.218750X0.256250X-0.218750X0.256250X0*%
%ADD34RoundRect,0.140000X-0.140000X-0.170000X0.140000X-0.170000X0.140000X0.170000X-0.140000X0.170000X0*%
%ADD35RoundRect,0.200000X0.275000X-0.200000X0.275000X0.200000X-0.275000X0.200000X-0.275000X-0.200000X0*%
%ADD36RoundRect,0.135000X-0.185000X0.135000X-0.185000X-0.135000X0.185000X-0.135000X0.185000X0.135000X0*%
%ADD37RoundRect,0.225000X-0.225000X-0.250000X0.225000X-0.250000X0.225000X0.250000X-0.225000X0.250000X0*%
%ADD38RoundRect,0.277778X1.622222X-0.722222X1.622222X0.722222X-1.622222X0.722222X-1.622222X-0.722222X0*%
%ADD39O,3.800000X2.000000*%
%ADD40C,0.650000*%
%ADD41R,1.450000X0.600000*%
%ADD42R,1.450000X0.300000*%
%ADD43O,2.100000X1.000000*%
%ADD44O,1.600000X1.000000*%
%ADD45RoundRect,0.075000X0.700000X0.075000X-0.700000X0.075000X-0.700000X-0.075000X0.700000X-0.075000X0*%
%ADD46RoundRect,0.075000X0.075000X0.700000X-0.075000X0.700000X-0.075000X-0.700000X0.075000X-0.700000X0*%
%ADD47RoundRect,0.150000X-0.825000X-0.150000X0.825000X-0.150000X0.825000X0.150000X-0.825000X0.150000X0*%
G04 APERTURE END LIST*
D10*
X66335000Y-61800000D03*
X65315000Y-61800000D03*
X69735000Y-61800000D03*
X68715000Y-61800000D03*
D11*
X58800000Y-77200000D03*
D12*
X59337500Y-77125000D03*
D11*
X59875000Y-77200000D03*
X59875000Y-78900000D03*
D12*
X59337500Y-78975000D03*
D11*
X58800000Y-78900000D03*
D13*
X82193500Y-66649999D03*
X82193500Y-67150000D03*
X82193500Y-67650000D03*
X82193500Y-68150001D03*
D14*
X82900001Y-68352500D03*
X83400000Y-68352500D03*
X83899999Y-68352500D03*
D13*
X84606500Y-68150001D03*
X84606500Y-67650000D03*
X84606500Y-67150000D03*
X84606500Y-66649999D03*
D14*
X83899999Y-66447500D03*
X83400000Y-66447500D03*
X82900001Y-66447500D03*
D15*
X59600000Y-81110000D03*
X59600000Y-80090000D03*
D16*
X75000000Y-90350000D03*
X75000000Y-88800000D03*
D15*
X61000000Y-81110000D03*
X61000000Y-80090000D03*
D17*
X60800000Y-102425000D03*
X60800000Y-103975000D03*
D18*
X60000000Y-66840000D03*
X60000000Y-67800000D03*
D19*
X70110000Y-66200000D03*
X69090000Y-66200000D03*
D20*
X70400000Y-91000000D03*
D21*
X70400000Y-88460000D03*
D18*
X58600000Y-83320000D03*
X58600000Y-84280000D03*
D15*
X69887500Y-99875000D03*
X69887500Y-98855000D03*
D22*
X96450000Y-60420000D03*
X96450000Y-68380000D03*
X91950000Y-60420000D03*
X91950000Y-68380000D03*
D23*
X81200000Y-77880000D03*
X81200000Y-78520000D03*
D10*
X75825000Y-61800000D03*
X76845000Y-61800000D03*
D15*
X85400000Y-87620000D03*
X85400000Y-86600000D03*
D24*
X76600000Y-90280000D03*
X76600000Y-89320000D03*
D16*
X73487500Y-103025000D03*
X73487500Y-101475000D03*
D25*
X87025000Y-98975000D03*
X87675000Y-98975000D03*
X88325000Y-98975000D03*
X88975000Y-98975000D03*
X88975000Y-101025000D03*
X88325000Y-101025000D03*
X87675000Y-101025000D03*
X87025000Y-101025000D03*
D26*
X54000000Y-106000000D03*
D27*
X63375000Y-101300000D03*
X63375000Y-101950000D03*
X63375000Y-102600000D03*
X63375000Y-103250000D03*
X67600000Y-103250000D03*
X67600000Y-102600000D03*
X67600000Y-101950000D03*
X67600000Y-101300000D03*
D10*
X87690000Y-97200000D03*
X88710000Y-97200000D03*
D28*
X70887500Y-101360600D03*
X70887500Y-103189400D03*
D26*
X96000000Y-54000000D03*
D29*
X92016000Y-80950001D03*
X92016000Y-79049999D03*
X89984000Y-80000000D03*
D30*
X82080000Y-69400000D03*
X81120000Y-69400000D03*
D31*
X81850000Y-52060000D03*
X85750000Y-52060000D03*
X81850000Y-53330000D03*
X85750000Y-53330000D03*
X81850000Y-54600000D03*
X85750000Y-54600000D03*
X81850000Y-55870000D03*
X85750000Y-55870000D03*
X81850000Y-57140000D03*
X85750000Y-57140000D03*
D10*
X72290000Y-61800000D03*
X73310000Y-61800000D03*
D26*
X96000000Y-106000000D03*
D32*
X53350000Y-66180000D03*
X53350000Y-58220000D03*
X57850000Y-66180000D03*
X57850000Y-58220000D03*
D33*
X68425000Y-60600000D03*
X70000000Y-60600000D03*
D17*
X64800000Y-85025000D03*
X64800000Y-86575000D03*
D18*
X70200000Y-69520000D03*
X70200000Y-70480000D03*
D24*
X79800000Y-73280000D03*
X79800000Y-72320000D03*
D34*
X85920000Y-102200000D03*
X86880000Y-102200000D03*
D33*
X65025000Y-60600000D03*
X66600000Y-60600000D03*
X75547500Y-60600000D03*
X77122500Y-60600000D03*
D20*
X64060000Y-52800000D03*
D21*
X66600000Y-52800000D03*
X69140000Y-52800000D03*
X71680000Y-52800000D03*
D33*
X72012500Y-60600000D03*
X73587500Y-60600000D03*
D24*
X80000000Y-78680000D03*
X80000000Y-77720000D03*
D16*
X80200000Y-82975000D03*
X80200000Y-81425000D03*
D15*
X85400000Y-93710000D03*
X85400000Y-92690000D03*
D26*
X54000000Y-54000000D03*
D15*
X70800000Y-105710000D03*
X70800000Y-104690000D03*
D24*
X68200000Y-70480000D03*
X68200000Y-69520000D03*
D35*
X87000000Y-90625000D03*
X87000000Y-88975000D03*
D24*
X65200000Y-82080000D03*
X65200000Y-81120000D03*
D10*
X89690000Y-97200000D03*
X90710000Y-97200000D03*
D34*
X76720000Y-85200000D03*
X77680000Y-85200000D03*
X89520000Y-102200000D03*
X90480000Y-102200000D03*
D10*
X72290000Y-66200000D03*
X73310000Y-66200000D03*
D20*
X90600000Y-88125000D03*
D21*
X90600000Y-90665000D03*
D36*
X69600000Y-104655000D03*
X69600000Y-105675000D03*
D37*
X72025000Y-67600000D03*
X73575000Y-67600000D03*
D17*
X60000000Y-83025000D03*
X60000000Y-84575000D03*
D15*
X68000000Y-88820000D03*
X68000000Y-87800000D03*
D38*
X96500000Y-83500000D03*
D39*
X96500000Y-80000000D03*
X96500000Y-76500000D03*
D40*
X55440000Y-76710000D03*
X55440000Y-82490000D03*
D41*
X56885000Y-76350000D03*
X56885000Y-77150000D03*
D42*
X56885000Y-78350000D03*
X56885000Y-79350000D03*
X56885000Y-79850000D03*
X56885000Y-80850000D03*
D41*
X56885000Y-82050000D03*
X56885000Y-82850000D03*
X56885000Y-82850000D03*
X56885000Y-82050000D03*
D42*
X56885000Y-81350000D03*
X56885000Y-80350000D03*
X56885000Y-78850000D03*
X56885000Y-77850000D03*
D41*
X56885000Y-77150000D03*
X56885000Y-76350000D03*
D43*
X55970000Y-75280000D03*
D44*
X51790000Y-75280000D03*
D43*
X55970000Y-83920000D03*
D44*
X51790000Y-83920000D03*
D24*
X85800000Y-67480000D03*
X85800000Y-66520000D03*
D37*
X68025000Y-67600000D03*
X69575000Y-67600000D03*
D15*
X81400000Y-82710000D03*
X81400000Y-81690000D03*
D45*
X78275000Y-81550000D03*
X78275000Y-81050000D03*
X78275000Y-80550000D03*
X78275000Y-80050000D03*
X78275000Y-79550000D03*
X78275000Y-79050000D03*
X78275000Y-78550000D03*
X78275000Y-78050000D03*
X78275000Y-77550000D03*
X78275000Y-77050000D03*
X78275000Y-76550000D03*
X78275000Y-76050000D03*
X78275000Y-75550000D03*
X78275000Y-75050000D03*
X78275000Y-74550000D03*
X78275000Y-74050000D03*
D46*
X76350000Y-72125000D03*
X75850000Y-72125000D03*
X75350000Y-72125000D03*
X74850000Y-72125000D03*
X74350000Y-72125000D03*
X73850000Y-72125000D03*
X73350000Y-72125000D03*
X72850000Y-72125000D03*
X72350000Y-72125000D03*
X71850000Y-72125000D03*
X71350000Y-72125000D03*
X70850000Y-72125000D03*
X70350000Y-72125000D03*
X69850000Y-72125000D03*
X69350000Y-72125000D03*
X68850000Y-72125000D03*
D45*
X66925000Y-74050000D03*
X66925000Y-74550000D03*
X66925000Y-75050000D03*
X66925000Y-75550000D03*
X66925000Y-76050000D03*
X66925000Y-76550000D03*
X66925000Y-77050000D03*
X66925000Y-77550000D03*
X66925000Y-78050000D03*
X66925000Y-78550000D03*
X66925000Y-79050000D03*
X66925000Y-79550000D03*
X66925000Y-80050000D03*
X66925000Y-80550000D03*
X66925000Y-81050000D03*
X66925000Y-81550000D03*
D46*
X68850000Y-83475000D03*
X69350000Y-83475000D03*
X69850000Y-83475000D03*
X70350000Y-83475000D03*
X70850000Y-83475000D03*
X71350000Y-83475000D03*
X71850000Y-83475000D03*
X72350000Y-83475000D03*
X72850000Y-83475000D03*
X73350000Y-83475000D03*
X73850000Y-83475000D03*
X74350000Y-83475000D03*
X74850000Y-83475000D03*
X75350000Y-83475000D03*
X75850000Y-83475000D03*
X76350000Y-83475000D03*
D24*
X71400000Y-70480000D03*
X71400000Y-69520000D03*
D47*
X78525000Y-88695000D03*
X78525000Y-89965000D03*
X78525000Y-91235000D03*
X78525000Y-92505000D03*
X83475000Y-92505000D03*
X83475000Y-91235000D03*
X83475000Y-89965000D03*
X83475000Y-88695000D03*
M02*
